<?xml version="1.0" encoding="UTF-8" standalone="no"?>
<!-- Created with Inkscape (http://www.inkscape.org/) -->

<svg
   xmlns:dc="http://purl.org/dc/elements/1.1/"
   xmlns:cc="http://creativecommons.org/ns#"
   xmlns:rdf="http://www.w3.org/1999/02/22-rdf-syntax-ns#"
   xmlns:svg="http://www.w3.org/2000/svg"
   xmlns="http://www.w3.org/2000/svg"
   xmlns:sodipodi="http://sodipodi.sourceforge.net/DTD/sodipodi-0.dtd"
   xmlns:inkscape="http://www.inkscape.org/namespaces/inkscape"
   width="900"
   height="900"
   viewBox="0 0 900.00001 900.00001"
   id="svg2"
   version="1.1"
   inkscape:version="0.91 r13725"
   sodipodi:docname="stylized_large_keelboats_with_8_sailors_and_spinakers.svg">
  <defs
     id="defs4" />
  <sodipodi:namedview
     id="base"
     pagecolor="#ffffff"
     bordercolor="#666666"
     borderopacity="1.0"
     inkscape:pageopacity="0.0"
     inkscape:pageshadow="2"
     inkscape:zoom="0.7"
     inkscape:cx="20.211203"
     inkscape:cy="434.97545"
     inkscape:document-units="px"
     inkscape:current-layer="g4225"
     showgrid="false"
     units="px"
     inkscape:window-width="1920"
     inkscape:window-height="1151"
     inkscape:window-x="0"
     inkscape:window-y="1"
     inkscape:window-maximized="1" />
  <metadata
     id="metadata7">
    <rdf:RDF>
      <cc:Work
         rdf:about="">
        <dc:format>image/svg+xml</dc:format>
        <dc:type
           rdf:resource="http://purl.org/dc/dcmitype/StillImage" />
        <dc:title></dc:title>
      </cc:Work>
    </rdf:RDF>
  </metadata>
  <g
     inkscape:label="Layer 1"
     inkscape:groupmode="layer"
     id="layer1"
     transform="translate(0,-152.36216)">
    <g
       id="g4281">
      <rect
         y="195.36217"
         x="27.5"
         height="745.14288"
         width="848"
         id="rect4177"
         style="opacity:1;fill:#333333;fill-opacity:1;stroke:none;stroke-width:10;stroke-linecap:round;stroke-miterlimit:4;stroke-dasharray:none;stroke-dashoffset:0;stroke-opacity:1" />
      <g
         transform="matrix(1.4833976,0.23875034,-0.2665146,1.3288641,-1541.2554,-1197.2928)"
         id="g4225">
        <path
           style="fill:#ffffff;fill-opacity:1;fill-rule:evenodd;stroke:none;stroke-width:14;stroke-linecap:butt;stroke-linejoin:miter;stroke-miterlimit:4;stroke-dasharray:none;stroke-opacity:1"
           d="m 1705.2603,1295.7701 c -38.3928,19.2514 -82.4488,8.1798 -121.9204,-1.2523 -29.7934,0.2888 -57.9937,18.5585 -88.0833,11.2038 -82.8607,-18.6631 -157.3464,-17.9482 -231.4451,-25.5799 -22.5765,-21.5651 24.8579,-30.2973 40.4057,-25.1256 139.4241,27.7423 277.4458,-28.515 254.6922,4.3379 223.6768,-4.3851 123.5435,-229.5956 240.9839,-35.6579 0.8521,23.3481 26.5872,-26.3343 30.5434,4.5684 -1.4383,23.8572 11.8642,55.2882 -9.2094,73.3038 -24.4454,10.1735 -48.7499,-8.4684 -73.2718,-9.7643 -13.8351,-1.2818 -29.9671,-2.6285 -42.6955,3.9658 z"
           id="path4265"
           inkscape:connector-curvature="0"
           sodipodi:nodetypes="cccccccccccc" />
        <path
           sodipodi:nodetypes="cccccccc"
           style="fill:#ffffff;fill-opacity:1;fill-rule:evenodd;stroke:none;stroke-width:14;stroke-linecap:round;stroke-linejoin:miter;stroke-miterlimit:4;stroke-dasharray:none;stroke-opacity:1"
           d="m 1637.2743,672.91513 112.07,282.79089 -32.4678,15.8988 0.1107,64.08608 c -32.5486,-9.9103 -162.9069,22.4197 -249.0278,50.2177 l -2.0606,-1.8804 -74.2961,-366.9378 c 66.5801,-50.50858 120.0357,-61.64018 245.6716,-44.17527 z"
           id="path4205"
           inkscape:connector-curvature="0" />
        <path
           style="fill:#333333;fill-opacity:1;fill-rule:evenodd;stroke:none;stroke-width:1px;stroke-linecap:butt;stroke-linejoin:miter;stroke-opacity:1"
           d="m 1306.272,1231.2897 c 53.9068,0.7013 93.2538,51.3637 147.8913,48.3848 19.4375,0.7548 66.8538,-31.0576 70.3063,-52.1967 5.3874,-26.1409 -30.3752,-4.6728 -56.291,-10.5456 29.4451,-11.4325 60.1346,-43.7926 85.6457,-21.3024 10.9782,18.9025 17.8005,44.0648 41.745,52.6532 18.1586,10.2209 48.2941,8.8885 55.9994,-13.708 20.3705,-35.8584 64.2365,-25.088 85.4942,-60.0705 3.6734,-12.9672 54.9081,11.823 54.9081,11.823 0,0 -61.8575,29.458 -45.7279,46.2478 15.952,17.2955 56.3754,17.898 79.4163,15.1888 -5.5921,25.1124 -31.1042,38.9918 -55.2072,40.2096 -33.063,-14.5704 -64.4867,-4.8388 -96.3423,-4.8287 -59.7311,-9.541 -125.106,-37.1101 -178.5191,3.5692 -49.8084,3.7418 -105.2112,5.1341 -147.2805,-26.2336 -7.717,-15.6995 -26.0363,-20.0304 -42.9114,-18.9481 -19.2734,0.9929 -9.1655,-5.5054 0.8731,-10.2428 z"
           id="path4274"
           inkscape:connector-curvature="0"
           sodipodi:nodetypes="ccccccccccccccccc" />
        <g
           id="g4397">
          <path
             sodipodi:nodetypes="cccc"
             inkscape:connector-curvature="0"
             id="path4213"
             d="m 1644.6906,976.26126 c 0,0 50.6516,13.78243 47.55,73.16324 -21.5871,-22.1272 -85.941,-36.7652 -85.941,-36.7652 14.1484,-11.1102 27.7325,-22.64731 38.391,-36.39804 z"
             style="fill:#333333;fill-opacity:1;fill-rule:evenodd;stroke:none;stroke-width:1px;stroke-linecap:butt;stroke-linejoin:miter;stroke-opacity:1" />
          <g
             style="fill:#333333;fill-opacity:1;stroke-width:26.90865135;stroke-miterlimit:4;stroke-dasharray:none"
             id="g4241"
             transform="matrix(1.4871977,-0.13230029,0.12632252,1.4745865,-1080.4162,-211.33313)">
            <ellipse
               ry="28.503992"
               rx="27.075418"
               transform="matrix(0.98424076,-0.17683359,0.17683359,0.98424076,0,0)"
               cy="1238.3483"
               cx="1523.3746"
               id="path4237"
               style="opacity:1;fill:#333333;fill-opacity:1;stroke:none;stroke-width:26.90865135;stroke-linecap:round;stroke-miterlimit:4;stroke-dasharray:none;stroke-dashoffset:0;stroke-opacity:1" />
          </g>
          <path
             style="fill:#333333;fill-opacity:1;fill-rule:evenodd;stroke:none;stroke-width:1px;stroke-linecap:butt;stroke-linejoin:miter;stroke-opacity:1"
             d="m 1727.056,970.21651 c 0,2e-5 23.1631,59.13609 -21.1216,90.43979 4.6948,-32.1837 -26.5957,-86.16306 -31.5285,-85.2768 17.9891,-0.0842 35.7948,-0.8519 52.6501,-5.16299 z"
             id="path4452"
             inkscape:connector-curvature="0"
             sodipodi:nodetypes="cccc" />
          <g
             transform="matrix(1.4871977,-0.13230029,0.12632252,1.4745865,-996.52456,-245.27429)"
             id="g4454"
             style="fill:#333333;fill-opacity:1;stroke-width:26.90865135;stroke-miterlimit:4;stroke-dasharray:none">
            <ellipse
               style="opacity:1;fill:#333333;fill-opacity:1;stroke:none;stroke-width:26.90865135;stroke-linecap:round;stroke-miterlimit:4;stroke-dasharray:none;stroke-dashoffset:0;stroke-opacity:1"
               id="ellipse4456"
               cx="1523.3746"
               cy="1238.3483"
               transform="matrix(0.98424076,-0.17683359,0.17683359,0.98424076,0,0)"
               rx="27.075418"
               ry="28.503992" />
          </g>
          <path
             style="fill:#333333;fill-opacity:1;fill-rule:evenodd;stroke:none;stroke-width:1px;stroke-linecap:butt;stroke-linejoin:miter;stroke-opacity:1"
             d="m 1487.6109,1056.0845 c 0,0 50.6516,13.7824 47.55,73.1633 -21.5871,-22.1272 -85.941,-36.7652 -85.941,-36.7652 14.1484,-11.1102 27.7325,-22.6474 38.391,-36.3981 z"
             id="path4385"
             inkscape:connector-curvature="0"
             sodipodi:nodetypes="cccc" />
          <g
             transform="matrix(1.4871977,-0.13230029,0.12632252,1.4745865,-1237.4959,-131.50987)"
             id="g4387"
             style="fill:#333333;fill-opacity:1;stroke-width:26.90865135;stroke-miterlimit:4;stroke-dasharray:none">
            <ellipse
               style="opacity:1;fill:#333333;fill-opacity:1;stroke:none;stroke-width:26.90865135;stroke-linecap:round;stroke-miterlimit:4;stroke-dasharray:none;stroke-dashoffset:0;stroke-opacity:1"
               id="ellipse4389"
               cx="1523.3746"
               cy="1238.3483"
               transform="matrix(0.98424076,-0.17683359,0.17683359,0.98424076,0,0)"
               rx="27.075418"
               ry="28.503992" />
          </g>
          <path
             sodipodi:nodetypes="cccc"
             inkscape:connector-curvature="0"
             id="path4391"
             d="m 1569.9763,1050.0398 c 0,0 23.1631,59.1361 -21.1216,90.4398 4.6948,-32.1837 -26.5957,-86.1631 -31.5285,-85.2768 17.9891,-0.084 35.7948,-0.8519 52.6501,-5.163 z"
             style="fill:#333333;fill-opacity:1;fill-rule:evenodd;stroke:none;stroke-width:1px;stroke-linecap:butt;stroke-linejoin:miter;stroke-opacity:1" />
          <g
             style="fill:#333333;fill-opacity:1;stroke-width:26.90865135;stroke-miterlimit:4;stroke-dasharray:none"
             id="g4393"
             transform="matrix(1.4871977,-0.13230029,0.12632252,1.4745865,-1153.6043,-165.45103)">
            <ellipse
               ry="28.503992"
               rx="27.075418"
               transform="matrix(0.98424076,-0.17683359,0.17683359,0.98424076,0,0)"
               cy="1238.3483"
               cx="1523.3746"
               id="ellipse4395"
               style="opacity:1;fill:#333333;fill-opacity:1;stroke:none;stroke-width:26.90865135;stroke-linecap:round;stroke-miterlimit:4;stroke-dasharray:none;stroke-dashoffset:0;stroke-opacity:1" />
          </g>
        </g>
      </g>
      <rect
         style="opacity:1;fill:#333333;fill-opacity:1;stroke:none;stroke-width:10;stroke-linecap:round;stroke-miterlimit:4;stroke-dasharray:none;stroke-dashoffset:0;stroke-opacity:1"
         id="rect4175"
         width="848"
         height="100"
         x="27.5"
         y="90.933586" />
      <text
         xml:space="preserve"
         style="font-style:normal;font-weight:normal;font-size:40px;line-height:125%;font-family:sans-serif;letter-spacing:0px;word-spacing:0px;fill:#000000;fill-opacity:1;stroke:none;stroke-width:1px;stroke-linecap:butt;stroke-linejoin:miter;stroke-opacity:1"
         x="77.117188"
         y="151.79576"
         id="text4181"
         sodipodi:linespacing="125%"><tspan
           sodipodi:role="line"
           id="tspan4183"
           x="77.117188"
           y="151.79576"
           style="fill:#ffffff;fill-opacity:1">TUESDAYS: RACING SKILLS BUILDING</tspan></text>
      <g
         id="g4322"
         transform="translate(0,-12)">
        <rect
           y="959.28278"
           x="29.277756"
           height="41.158772"
           width="844.44446"
           id="rect4179"
           style="opacity:1;fill:none;fill-opacity:1;stroke:#333333;stroke-width:3.84122825;stroke-linecap:round;stroke-miterlimit:4;stroke-dasharray:none;stroke-dashoffset:0;stroke-opacity:1" />
        <text
           xml:space="preserve"
           style="font-style:normal;font-weight:normal;font-size:40px;line-height:125%;font-family:sans-serif;letter-spacing:0px;word-spacing:0px;fill:#000000;fill-opacity:1;stroke:none;stroke-width:1px;stroke-linecap:butt;stroke-linejoin:miter;stroke-opacity:1"
           x="60"
           y="993.79077"
           id="text4185"
           sodipodi:linespacing="125%"><tspan
             sodipodi:role="line"
             id="tspan4187"
             x="60"
             y="993.79077">bullet point number one, which is brief</tspan></text>
      </g>
      <g
         transform="translate(0,36.571429)"
         id="g4327">
        <rect
           style="opacity:1;fill:none;fill-opacity:1;stroke:#333333;stroke-width:3.84122825;stroke-linecap:round;stroke-miterlimit:4;stroke-dasharray:none;stroke-dashoffset:0;stroke-opacity:1"
           id="rect4329"
           width="844.44446"
           height="41.158772"
           x="29.277756"
           y="959.28278" />
        <text
           sodipodi:linespacing="125%"
           id="text4331"
           y="993.79077"
           x="60"
           style="font-style:normal;font-weight:normal;font-size:40px;line-height:125%;font-family:sans-serif;letter-spacing:0px;word-spacing:0px;fill:#000000;fill-opacity:1;stroke:none;stroke-width:1px;stroke-linecap:butt;stroke-linejoin:miter;stroke-opacity:1"
           xml:space="preserve"><tspan
             y="993.79077"
             x="60"
             id="tspan4333"
             sodipodi:role="line">bullet point number one, which is brief</tspan></text>
      </g>
      <rect
         style="opacity:1;fill:#333333;fill-opacity:1;stroke:none;stroke-width:10;stroke-linecap:round;stroke-miterlimit:4;stroke-dasharray:none;stroke-dashoffset:0;stroke-opacity:1"
         id="rect4335"
         width="848"
         height="745.14288"
         x="-846.78571"
         y="195.36217" />
      <g
         id="g4337"
         transform="matrix(1.4833976,0.23875034,-0.2665146,1.3288641,-2415.5411,-1197.2928)">
        <path
           sodipodi:nodetypes="cccccccccccc"
           inkscape:connector-curvature="0"
           id="path4339"
           d="m 1705.2603,1295.7701 c -38.3928,19.2514 -82.4488,8.1798 -121.9204,-1.2523 -29.7934,0.2888 -57.9937,18.5585 -88.0833,11.2038 -82.8607,-18.6631 -157.3464,-17.9482 -231.4451,-25.5799 -22.5765,-21.5651 24.8579,-30.2973 40.4057,-25.1256 139.4241,27.7423 277.4458,-28.515 254.6922,4.3379 223.6768,-4.3851 123.5435,-229.5956 240.9839,-35.6579 0.8521,23.3481 26.5872,-26.3343 30.5434,4.5684 -1.4383,23.8572 11.8642,55.2882 -9.2094,73.3038 -24.4454,10.1735 -48.7499,-8.4684 -73.2718,-9.7643 -13.8351,-1.2818 -29.9671,-2.6285 -42.6955,3.9658 z"
           style="fill:#ffffff;fill-opacity:1;fill-rule:evenodd;stroke:none;stroke-width:14;stroke-linecap:butt;stroke-linejoin:miter;stroke-miterlimit:4;stroke-dasharray:none;stroke-opacity:1" />
        <path
           sodipodi:nodetypes="csccsc"
           inkscape:connector-curvature="0"
           id="path4341"
           d="m 1585.7129,952.19973 c -10e-5,-0.0415 223.1383,26.7561 241.4293,139.19227 6.6331,40.7749 -18.5182,204.038 -20.7589,195.7533 l -175.426,-2.8882 c -0.1053,-0.087 16.536,-17.5273 5.1094,-109.6498 -12.4385,-100.2796 -50.3538,-222.40757 -50.3538,-222.40757 z"
           style="fill:#ffffff;fill-opacity:1;fill-rule:evenodd;stroke:none;stroke-width:10.0558548;stroke-linecap:butt;stroke-linejoin:miter;stroke-miterlimit:4;stroke-dasharray:none;stroke-opacity:1" />
        <path
           sodipodi:nodetypes="cccc"
           inkscape:connector-curvature="0"
           id="path4343"
           d="m 1247.1429,1270.9336 c -0.484,11.5969 -2.9553,-101.5977 329.2856,-315.71425 38.5632,101.40125 73.5898,318.01695 45.7144,334.28575 -130.5403,14.7322 -252.2137,-4.0213 -375,-18.5715 z"
           style="fill:#ffffff;fill-opacity:1;fill-rule:evenodd;stroke:none;stroke-width:1px;stroke-linecap:butt;stroke-linejoin:miter;stroke-opacity:1" />
        <path
           inkscape:connector-curvature="0"
           id="path4345"
           d="m 1170.3127,786.1228 111.6189,282.9943 33.3116,-13.7644 42.9294,44.777 c 16.0482,-31.825 128.6531,-109.05905 207.3666,-155.59319 l 0.1751,-2.88859 -194.4305,-312.76321 c -80.3266,15.73894 -125.0756,48.89264 -200.9711,157.23809 z"
           style="fill:#ffffff;fill-opacity:1;fill-rule:evenodd;stroke:none;stroke-width:14;stroke-linecap:round;stroke-linejoin:miter;stroke-miterlimit:4;stroke-dasharray:none;stroke-opacity:1"
           sodipodi:nodetypes="cccccccc" />
        <path
           sodipodi:nodetypes="cccc"
           inkscape:connector-curvature="0"
           id="path4347"
           d="m 1708.8572,926.03163 c 0,0 50.6516,13.78243 47.55,73.16322 -21.5871,-22.12716 -85.941,-36.7652 -85.941,-36.7652 14.1484,-11.11016 27.7325,-22.6473 38.391,-36.39802 z"
           style="fill:#ffffff;fill-opacity:1;fill-rule:evenodd;stroke:none;stroke-width:1px;stroke-linecap:butt;stroke-linejoin:miter;stroke-opacity:1" />
        <path
           sodipodi:nodetypes="ccsccc"
           inkscape:connector-curvature="0"
           id="path4349"
           d="m 1196.0523,739.46853 c 41.1231,122.91261 83.6984,245.76073 143.1513,364.23697 1.7721,3.645 6.047,5.1141 9.5034,3.266 3.4564,-1.8482 4.7601,-6.3002 2.8982,-9.8972 -58.6991,-116.97413 -100.9815,-238.72053 -141.9548,-361.15868 -9.2848,-10.22569 -16.4994,-5.01218 -13.5981,3.55291 z"
           style="color:#000000;font-style:normal;font-variant:normal;font-weight:normal;font-stretch:normal;font-size:medium;line-height:normal;font-family:sans-serif;text-indent:0;text-align:start;text-decoration:none;text-decoration-line:none;text-decoration-style:solid;text-decoration-color:#000000;letter-spacing:normal;word-spacing:normal;text-transform:none;direction:ltr;block-progression:tb;writing-mode:lr-tb;baseline-shift:baseline;text-anchor:start;white-space:normal;clip-rule:nonzero;display:inline;overflow:visible;visibility:visible;opacity:1;isolation:auto;mix-blend-mode:normal;color-interpolation:sRGB;color-interpolation-filters:linearRGB;solid-color:#000000;solid-opacity:1;fill:#333333;fill-opacity:1;fill-rule:evenodd;stroke:none;stroke-width:14;stroke-linecap:round;stroke-linejoin:miter;stroke-miterlimit:4;stroke-dasharray:none;stroke-dashoffset:0;stroke-opacity:1;color-rendering:auto;image-rendering:auto;shape-rendering:auto;text-rendering:auto;enable-background:accumulate" />
        <g
           style="fill:#ffffff;fill-opacity:1;stroke-width:26.90865135;stroke-miterlimit:4;stroke-dasharray:none"
           id="g4351"
           transform="matrix(1.4871977,-0.13230029,0.12632252,1.4745865,-1016.2496,-261.56276)">
          <ellipse
             ry="28.503992"
             rx="27.075418"
             transform="matrix(0.98424076,-0.17683359,0.17683359,0.98424076,0,0)"
             cy="1238.3483"
             cx="1523.3746"
             id="ellipse4353"
             style="opacity:1;fill:#ffffff;fill-opacity:1;stroke:none;stroke-width:26.90865135;stroke-linecap:round;stroke-miterlimit:4;stroke-dasharray:none;stroke-dashoffset:0;stroke-opacity:1" />
        </g>
        <path
           sodipodi:nodetypes="ccccccccccccccccc"
           inkscape:connector-curvature="0"
           id="path4355"
           d="m 1306.272,1231.2897 c 53.9068,0.7013 93.2538,51.3637 147.8913,48.3848 19.4375,0.7548 66.8538,-31.0576 70.3063,-52.1967 5.3874,-26.1409 -30.3752,-4.6728 -56.291,-10.5456 29.4451,-11.4325 60.1346,-43.7926 85.6457,-21.3024 10.9782,18.9025 17.8005,44.0648 41.745,52.6532 18.1586,10.2209 48.2941,8.8885 55.9994,-13.708 20.3705,-35.8584 64.2365,-25.088 85.4942,-60.0705 3.6734,-12.9672 54.9081,11.823 54.9081,11.823 0,0 -61.8575,29.458 -45.7279,46.2478 15.952,17.2955 56.3754,17.898 79.4163,15.1888 -5.5921,25.1124 -31.1042,38.9918 -55.2072,40.2096 -33.063,-14.5704 -64.4867,-4.8388 -96.3423,-4.8287 -59.7311,-9.541 -125.106,-37.1101 -178.5191,3.5692 -49.8084,3.7418 -105.2112,5.1341 -147.2805,-26.2336 -7.717,-15.6995 -26.0363,-20.0304 -42.9114,-18.9481 -19.2734,0.9929 -9.1655,-5.5054 0.8731,-10.2428 z"
           style="fill:#333333;fill-opacity:1;fill-rule:evenodd;stroke:none;stroke-width:1px;stroke-linecap:butt;stroke-linejoin:miter;stroke-opacity:1" />
        <path
           style="fill:#ffffff;fill-opacity:1;fill-rule:evenodd;stroke:none;stroke-width:1px;stroke-linecap:butt;stroke-linejoin:miter;stroke-opacity:1"
           d="m 1791.2226,919.98688 c 0,2e-5 23.1631,59.13611 -21.1216,90.43982 4.6948,-32.18374 -26.5957,-86.16309 -31.5285,-85.27683 17.9891,-0.0842 35.7948,-0.8519 52.6501,-5.16299 z"
           id="path4357"
           inkscape:connector-curvature="0"
           sodipodi:nodetypes="cccc" />
        <g
           transform="matrix(1.4871977,-0.13230029,0.12632252,1.4745865,-932.35804,-295.50392)"
           id="g4359"
           style="fill:#ffffff;fill-opacity:1;stroke-width:26.90865135;stroke-miterlimit:4;stroke-dasharray:none">
          <ellipse
             style="opacity:1;fill:#ffffff;fill-opacity:1;stroke:none;stroke-width:26.90865135;stroke-linecap:round;stroke-miterlimit:4;stroke-dasharray:none;stroke-dashoffset:0;stroke-opacity:1"
             id="ellipse4361"
             cx="1523.3746"
             cy="1238.3483"
             transform="matrix(0.98424076,-0.17683359,0.17683359,0.98424076,0,0)"
             rx="27.075418"
             ry="28.503992" />
        </g>
      </g>
      <rect
         y="90.933586"
         x="-846.78571"
         height="100"
         width="848"
         id="rect4363"
         style="opacity:1;fill:#333333;fill-opacity:1;stroke:none;stroke-width:10;stroke-linecap:round;stroke-miterlimit:4;stroke-dasharray:none;stroke-dashoffset:0;stroke-opacity:1" />
      <text
         sodipodi:linespacing="125%"
         id="text4365"
         y="151.79576"
         x="-797.16852"
         style="font-style:normal;font-weight:normal;font-size:40px;line-height:125%;font-family:sans-serif;letter-spacing:0px;word-spacing:0px;fill:#000000;fill-opacity:1;stroke:none;stroke-width:1px;stroke-linecap:butt;stroke-linejoin:miter;stroke-opacity:1"
         xml:space="preserve"><tspan
           style="fill:#ffffff;fill-opacity:1"
           y="151.79576"
           x="-797.16852"
           id="tspan4367"
           sodipodi:role="line">TUESDAYS: RACING SKILLS BUILDING</tspan></text>
      <g
         transform="translate(-874.28572,-12)"
         id="g4369">
        <rect
           style="opacity:1;fill:none;fill-opacity:1;stroke:#333333;stroke-width:3.84122825;stroke-linecap:round;stroke-miterlimit:4;stroke-dasharray:none;stroke-dashoffset:0;stroke-opacity:1"
           id="rect4371"
           width="844.44446"
           height="41.158772"
           x="29.277756"
           y="959.28278" />
        <text
           sodipodi:linespacing="125%"
           id="text4373"
           y="993.79077"
           x="60"
           style="font-style:normal;font-weight:normal;font-size:40px;line-height:125%;font-family:sans-serif;letter-spacing:0px;word-spacing:0px;fill:#000000;fill-opacity:1;stroke:none;stroke-width:1px;stroke-linecap:butt;stroke-linejoin:miter;stroke-opacity:1"
           xml:space="preserve"><tspan
             y="993.79077"
             x="60"
             id="tspan4375"
             sodipodi:role="line">bullet point number one, which is brief</tspan></text>
      </g>
      <g
         id="g4377"
         transform="translate(-874.28572,36.571429)">
        <rect
           y="959.28278"
           x="29.277756"
           height="41.158772"
           width="844.44446"
           id="rect4379"
           style="opacity:1;fill:none;fill-opacity:1;stroke:#333333;stroke-width:3.84122825;stroke-linecap:round;stroke-miterlimit:4;stroke-dasharray:none;stroke-dashoffset:0;stroke-opacity:1" />
        <text
           xml:space="preserve"
           style="font-style:normal;font-weight:normal;font-size:40px;line-height:125%;font-family:sans-serif;letter-spacing:0px;word-spacing:0px;fill:#000000;fill-opacity:1;stroke:none;stroke-width:1px;stroke-linecap:butt;stroke-linejoin:miter;stroke-opacity:1"
           x="60"
           y="993.79077"
           id="text4381"
           sodipodi:linespacing="125%"><tspan
             sodipodi:role="line"
             id="tspan4383"
             x="60"
             y="993.79077">bullet point number one, which is brief</tspan></text>
      </g>
    </g>
  </g>
</svg>
