<?xml version="1.0" encoding="UTF-8" standalone="no"?>
<!-- Created with Inkscape (http://www.inkscape.org/) -->

<svg
   xmlns:dc="http://purl.org/dc/elements/1.1/"
   xmlns:cc="http://creativecommons.org/ns#"
   xmlns:rdf="http://www.w3.org/1999/02/22-rdf-syntax-ns#"
   xmlns:svg="http://www.w3.org/2000/svg"
   xmlns="http://www.w3.org/2000/svg"
   xmlns:sodipodi="http://sodipodi.sourceforge.net/DTD/sodipodi-0.dtd"
   xmlns:inkscape="http://www.inkscape.org/namespaces/inkscape"
   width="900"
   height="900"
   viewBox="0 0 900.00001 900.00001"
   id="svg2"
   version="1.1"
   inkscape:version="0.91 r13725"
   sodipodi:docname="r19_bow_silhouette07--larger--rough_in.svg">
  <defs
     id="defs4" />
  <sodipodi:namedview
     id="base"
     pagecolor="#ffffff"
     bordercolor="#666666"
     borderopacity="1.0"
     inkscape:pageopacity="0.0"
     inkscape:pageshadow="2"
     inkscape:zoom="0.35"
     inkscape:cx="750.18956"
     inkscape:cy="425.38155"
     inkscape:document-units="px"
     inkscape:current-layer="g4318"
     showgrid="false"
     units="px"
     inkscape:window-width="1920"
     inkscape:window-height="1151"
     inkscape:window-x="0"
     inkscape:window-y="1"
     inkscape:window-maximized="1" />
  <metadata
     id="metadata7">
    <rdf:RDF>
      <cc:Work
         rdf:about="">
        <dc:format>image/svg+xml</dc:format>
        <dc:type
           rdf:resource="http://purl.org/dc/dcmitype/StillImage" />
        <dc:title></dc:title>
      </cc:Work>
    </rdf:RDF>
  </metadata>
  <g
     inkscape:label="Layer 1"
     inkscape:groupmode="layer"
     id="layer1"
     transform="translate(0,-152.36216)">
    <g
       id="g4318">
      <path
         style="opacity:1;fill:#333333;fill-opacity:1;stroke:none;stroke-width:60.71525574;stroke-linecap:round;stroke-miterlimit:4;stroke-dasharray:none;stroke-dashoffset:0;stroke-opacity:1"
         d="m 451.62695,41.896484 c -28.1625,0.139649 -56.24056,2.987039 -83.81836,8.5 l 135.90625,341.832036 -0.68359,2.8125 c -85.70183,31.8816 -298.75974,145.12991 -320.18276,173.61551 l -8.38281,-12.61328 c -35.52029,-122.77532 -55.13675,-247.23454 -73.39453,-372.125 -7.330239,-11.7064 -15.352699,-7.85136 -14.011719,1.0918 16.277249,111.39395 33.647709,222.93391 62.546869,333.6289 l -1.09375,-1.64648 -35.2207,7.6582 -59.318359,-295.79101 c -73.70347,75.72918 -26.249637,118.53679 -26.446147,222.44698 1.43e-4,108.58258 44.682672,212.71873 124.216796,289.49805 79.53412,76.77932 187.40481,119.91243 299.88281,119.91211 83.22423,-0.0943 164.58034,-23.82518 233.9336,-68.23633 -15.06799,-1.14058 -30.83199,-8.02469 -46.65235,-15.33008 24.20967,-1.23197 57.74314,-16.71253 66.52344,-37.66211 -23.15687,-1.4079 -73.94762,-26.32027 -86.58984,-46.16406 -12.90638,-19.37746 64.29687,-20.26172 64.29687,-20.26172 0,0 -46.04458,-33.45897 -51.95312,-21.3457 -27.10878,30.67212 -68.37909,12.31475 -94.76953,44.00586 -4.9568,8.93696 -13.2722,13.2994 -22.41993,14.33984 0.35707,-1.67048 0.7086,-3.37277 1.04688,-5.14062 -6.99216,1.13116 -14.45733,1.88486 -22.41016,2.21484 -5.09637,-1.90885 -9.84023,-4.58997 -13.75781,-7.82617 -22.04844,-12.68725 -24.3128,-38.65916 -31.77539,-59.20508 -21.13204,-26.64699 -57.05978,-0.22319 -88.0625,5.82226 24.46888,10.36304 63.46415,-4.44228 53.53906,20.33399 -50.45597,75.54771 -135.42458,-23.52492 -184.71875,-35.54883 -10.71813,2.88758 -52.53001,8.21165 -33.38476,10.64258 16.80054,1.91884 43.35073,5.8493 48.16992,22.66601 -4.8079,12.64209 -77.22142,-14.73484 -94.95703,-10.01757 69.47416,28.52308 158.20665,60.45963 252.51953,78.1582 -37.27858,5.49918 -75.79097,10.59387 -90.82813,3.92383 -78.25462,-33.02154 -91.08264,-43.46942 -162.66406,-64.08399 -2.42981,-3.32877 -3.68869,-6.21672 -4.02734,-8.71289 -3.55599,-1.09043 -7.10912,-2.18721 -10.66797,-3.27148 -0.37452,1.00671 -0.3168,1.02689 -0.082,-0.0254 0.0274,0.008 0.0546,0.017 0.082,0.0254 3.65741,-9.8313 48.86522,-114.66226 379.8418,-252.53516 15.21112,80.99399 16.6542,227.04046 3.18359,297.43946 2.7318,-0.44196 5.39874,-0.93447 7.99219,-1.48438 3.68087,-15.88078 7.02636,-38.19779 8.72851,-69.47852 5.49032,-100.89881 -10.23047,-227.80859 -10.23047,-227.80859 0.007,-0.0409 214.88951,65.79464 213.00977,179.69336 -0.37253,22.56852 -16.54233,79.3695 -31.26367,124.93555 5.99278,-2.42992 48.29682,-8.46854 47.67773,3.79492 -64.45215,24.86001 -41.46862,50.15536 -48.10742,66.0039 C 811.37029,703.5512 875.53479,581.33838 875.72461,451.30664 875.72447,342.72438 831.04348,238.58981 751.50977,161.81055 671.97607,85.03128 564.10461,41.896663 451.62695,41.896484 Z m 316.4166,189.709646 c 20.77537,0.35684 38.02778,17.05795 39.91211,38.63672 2.02637,23.20335 -14.36687,43.58845 -36.61523,45.53125 -22.24861,1.94304 -41.92728,-15.29241 -43.95313,-38.49609 -2.02637,-23.20336 14.36688,-43.58845 36.61524,-45.53125 1.34342,-0.11709 2.69211,-0.16403 4.04101,-0.14063 z m -88.57226,18.57227 c 20.77611,0.35581 38.02965,17.05719 39.91406,38.63672 2.02524,23.20335 -14.36884,43.58752 -36.61719,45.52929 -22.24722,1.94189 -41.92434,-15.2921 -43.95117,-38.49414 -2.02637,-23.20335 14.36687,-43.58845 36.61523,-45.53125 1.34278,-0.11702 2.69082,-0.16396 4.03907,-0.14062 z m 45.85937,65.58594 c 0,0 38.15183,152.36554 24.59859,210.26206 -19.82478,50.64465 -36.41055,-47.74158 -81.09143,-80.24588 -9.3527,-6.80387 2.50668,-85.61069 4.18896,-96.94042 21.61516,-4.13935 44.42259,-17.64593 52.30388,-33.07576 z m 13.48795,2.40938 c 17.63717,3.07711 41.27628,6.45237 58.54725,5.1957 0,2e-5 18.05539,156.58564 -31.06696,179.56501 10.15086,-30.36438 -22.05872,-182.97696 -27.48029,-184.76071 z m 76.82201,274.23058 c 31.46156,0.10133 -93.11132,99.56445 -93.11132,99.56445 1.82473,3.34534 23.31447,-68.91615 32.16406,-76.05469 33.30047,-16.85306 52.11131,-23.53822 60.94726,-23.50976 z M 508.00391,730.91406 c 14.12251,5.79763 28.13695,11.75014 42.00976,16.59766 22.32772,4.0042 38.15395,6.9928 56.22852,15.65234 -13.38803,-4.59948 -26.49418,-6.81905 -38.91211,-3.27344 -30.35203,8.95917 -43.8395,-5.68708 -63.69922,-20.52148 1.54388,-2.22701 3.00449,-5.04677 4.37305,-8.45508 z M 262.69531,765 c 2.02273,-0.0134 4.10201,-0.01 6.23438,0.0117 73.92222,0.74466 211.37338,21.93553 248.80078,26.88867 -3.52018,69.48193 -241.74813,-30.93398 -287.81836,-23.6875 7.2474,-2.14954 18.62413,-3.11902 32.7832,-3.21289 z"
         transform="translate(0,152.36216)"
         id="path4223"
         inkscape:connector-curvature="0"
         sodipodi:nodetypes="cccccccccccccscccccccccccccccccccccccccccccscsccccsccsscccccscccccsccccccsccscccccccsccsc" />
      <g
         transform="matrix(0.98424076,0.17683359,-0.17683359,0.98424076,-870.81,-659.08765)"
         id="g4225">
        <g
           transform="matrix(1.4871977,-0.13230029,0.12632252,1.4745865,-1016.2496,-261.56276)"
           id="g4241"
           style="fill:#ffffff;fill-opacity:1;stroke-width:26.90865135;stroke-miterlimit:4;stroke-dasharray:none" />
        <g
           style="fill:#ffffff;fill-opacity:1;stroke-width:26.90865135;stroke-miterlimit:4;stroke-dasharray:none"
           id="g4454"
           transform="matrix(1.4871977,-0.13230029,0.12632252,1.4745865,-932.35804,-295.50392)" />
      </g>
    </g>
  </g>
</svg>
