<?xml version="1.0" encoding="UTF-8" standalone="no"?>
<!-- Created with Inkscape (http://www.inkscape.org/) -->

<svg
   xmlns:dc="http://purl.org/dc/elements/1.1/"
   xmlns:cc="http://creativecommons.org/ns#"
   xmlns:rdf="http://www.w3.org/1999/02/22-rdf-syntax-ns#"
   xmlns:svg="http://www.w3.org/2000/svg"
   xmlns="http://www.w3.org/2000/svg"
   xmlns:sodipodi="http://sodipodi.sourceforge.net/DTD/sodipodi-0.dtd"
   xmlns:inkscape="http://www.inkscape.org/namespaces/inkscape"
   width="900"
   height="900"
   viewBox="0 0 900.00001 900.00001"
   id="svg2"
   version="1.1"
   inkscape:version="0.91 r13725"
   sodipodi:docname="r19_bow_silhouette04.svg">
  <defs
     id="defs4" />
  <sodipodi:namedview
     id="base"
     pagecolor="#ffffff"
     bordercolor="#666666"
     borderopacity="1.0"
     inkscape:pageopacity="0.0"
     inkscape:pageshadow="2"
     inkscape:zoom="0.175"
     inkscape:cx="593.5607"
     inkscape:cy="457.74877"
     inkscape:document-units="px"
     inkscape:current-layer="g4225"
     showgrid="false"
     units="px"
     inkscape:window-width="1920"
     inkscape:window-height="1151"
     inkscape:window-x="0"
     inkscape:window-y="1"
     inkscape:window-maximized="1" />
  <metadata
     id="metadata7">
    <rdf:RDF>
      <cc:Work
         rdf:about="">
        <dc:format>image/svg+xml</dc:format>
        <dc:type
           rdf:resource="http://purl.org/dc/dcmitype/StillImage" />
        <dc:title></dc:title>
      </cc:Work>
    </rdf:RDF>
  </metadata>
  <g
     inkscape:label="Layer 1"
     inkscape:groupmode="layer"
     id="layer1"
     transform="translate(0,-152.36216)">
    <g
       id="g4318">
      <ellipse
         ry="387.95697"
         rx="401.875"
         cy="603.66876"
         cx="451.62631"
         id="path4223"
         style="opacity:1;fill:#000000;fill-opacity:1;stroke:#000000;stroke-width:60.71525574;stroke-linecap:round;stroke-miterlimit:4;stroke-dasharray:none;stroke-dashoffset:0;stroke-opacity:1" />
      <g
         transform="matrix(0.98424076,0.17683359,-0.17683359,0.98424076,-870.81,-659.08765)"
         id="g4225">
        <path
           inkscape:connector-curvature="0"
           id="path4265"
           d="m 1705.2603,1295.7701 c -0.8797,5.0737 -4.7797,3.4825 -9.3801,5.1439 -5.6754,-2.2531 -11.9057,-0.5387 -17.3428,1.1871 -4.975,1.5907 -14.1151,-4.2463 -10.4116,4.7702 1.1322,7.0695 -8.7808,7.4271 -11.1056,3.9349 -2.1324,-1.2362 -6.6172,-6.6102 -8.7739,-4.637 -5.1613,2.378 -11.8187,1.3312 -15.5197,-2.4854 -6.2276,-1.8213 -12.2542,-3.1897 -19.088,-3.1655 -5.339,-2.9104 -12.5731,-0.067 -18.0465,-3.5613 -7.4272,-2.5761 -15.938,-2.76 -24.3034,-1.9783 -10.1339,-0.6395 -18.7022,6.5372 -28.7956,7.1224 -7.1372,0.7271 -13.3278,3.3823 -19.7819,6.3309 -7.5311,2.3773 -16.9224,-0.3781 -22.8763,-1.9646 -9.8827,-2.3709 -21.4754,-4.4101 -30.5696,-1.2009 -7.4938,0.7548 -14.2499,-1.8485 -20.4956,-1.5827 -11.0831,1.375 -19.3115,-6.9776 -30.5889,-5.144 -9.0882,0.3398 -17.9024,-0.5151 -25.2668,-5.5396 -7.318,-2.5767 -14.6739,-4.8863 -20.8232,-7.9137 -5.2728,-2.2529 -10.9846,-1.1861 -14.2291,-7.1222 -5.1531,-3.9885 -14.738,-2.4291 -22.2113,-2.7699 -5.8075,3.2523 -14.1553,7.4646 -20.8231,3.1654 -4.808,-3.6908 -12.3615,-6.0681 -17.6996,-2.374 -4.9849,4.4438 -11.1946,9.766 -18.0466,7.1223 -4.2785,-1.0856 -4.2055,-6.7757 -10.084,-5.5396 -6.5341,-0.2363 -14.8547,1.5886 -20.4552,0.5085 -2.4567,-4.4654 -2.2309,-11.4822 0.3456,-13.9617 1.0197,-6.3348 3.4605,-1.7396 5.2058,1.5827 0.609,3.5305 9.3901,4.5334 9.0233,-1.9786 1.3932,-4.5219 2.0183,-8.8559 5.8999,-10.2878 6.2256,-2.3431 9.6229,3.3123 15.6173,1.5828 3.4069,-5.8275 6.6896,-1.0389 9.7175,1.1871 0.7376,4.4254 9.4984,5.6974 11.7997,0 2.3594,-2.7832 8.1568,-5.2194 10.4116,-1.5828 1.8584,3.9514 7.7522,4.6691 12.1565,3.5612 5.6082,0.05 9.8595,8.3841 15.6076,2.3741 8.5393,-1.2594 17.3974,3.6564 21.8643,9.8922 3.3481,2.7978 4.1008,5.2705 6.594,9.4964 6.8649,3.1992 13.4753,-4.3298 17.0426,-8.5294 1.9522,-3.2203 8.6251,-1.1354 11.0685,2.1984 6.5283,5.5794 10.3393,-0.8658 16.6585,-1.9784 7.8118,-1.4185 10.069,7.9437 13.5351,12.6621 2.9808,5.4124 11.6526,5.2303 17.3525,5.9351 6.3786,1.0387 13.2588,3.7984 18.7408,6.7266 6.9748,1.0777 13.1641,-0.9984 15.9644,-7.9135 3.8459,-5.9375 7.1568,-12.6888 12.1467,-17.4103 -0.2134,-4.1805 -1.1409,-8.5929 3.1236,-9.4964 6.1905,-3.4485 6.2641,6.673 4.5116,8.7051 -1.9085,1.5941 -3.8317,4.0236 -4.8588,6.3309 -3.5427,4.1129 -4.2572,10.5742 -3.1233,16.6187 0.1234,4.2459 3.2048,6.3821 6.5939,5.9354 -1.4258,-1.3582 -3.1392,-12.6027 2.4294,-8.3094 -0.7742,2.9136 -2.4149,14.582 4.1646,8.7051 0.3175,-5.6786 3.6899,-9.0036 8.6763,-6.7267 1.3912,5.1102 6.3877,3.4665 9.0233,2.3742 5.0077,-3.5025 10.5978,0.533 14.2368,-3.0125 3.928,-4.7273 12.5391,-12.5229 19.4271,-8.0668 6.9546,2.2698 15.3959,1.5355 21.8642,4.7483 6.2444,1.427 12.5989,0.4386 15.2704,-6.7266 3.0336,-5.3761 10.4712,-3.3554 14.2291,-5.144 1.8042,-6.796 5.4711,-17.3266 5.8999,-26.9067 0.6269,-9.037 3.317,-14.6195 3.4705,-23.3454 0.7172,-6.1624 4.9622,-11.5401 10.0645,-7.9137 3.4285,4.3068 4.1297,10.0366 5.5529,15.4317 0.3683,6.1109 1.2058,13.7643 -2.0824,17.8059 -1.8281,6.3517 -3.7573,12.6419 -4.5118,18.6083 0.074,5.8735 -0.9587,13.5834 2.4294,15.8164 2.344,5.064 6.597,6.4011 11.4527,4.1546 8.1423,-9.4477 8.1175,-25.4657 16.3116,-35.0181 3.6162,-6.515 8.9017,-11.2369 11.1056,-18.5972 0.6097,-7.0002 9.3845,-15.3616 9.3539,-23.5433 -1.5701,-2.8738 -6.7179,-7.0979 -7.2716,-11.277 1.8053,-2.3904 9.2173,-4.2206 11.4527,0 3.0182,2.7888 9.5944,0.4639 8.3293,-5.5397 -5.3547,-4.0566 -6.5118,-11.5273 -10.4116,-15.4316 -2.3938,-4.0832 -4.6859,-4.9513 -9.7175,-5.5397 -2.8012,-1.1142 -4.6961,-10.154 -0.3471,-11.4748 3.5853,-2.4175 10.8678,-4.2698 9.0234,3.1653 -0.061,6.5168 9.698,2.1935 11.1057,6.7268 4.1195,6.3778 5.5596,-4.2922 3.4704,-7.518 -2.5886,-3.9971 -8.0241,-3.6695 -10.0644,-8.3095 -1.0429,-4.5952 7.4649,-4.1576 1.7353,-6.7267 -4.3823,-0.696 -6.2783,-3.6187 -5.8998,-9.1007 5.4854,-3.2834 6.1657,1.697 7.9821,5.1439 3.5729,0.9523 5.5235,0.9395 7.6352,4.7482 3.3899,4.2873 12.5517,-0.8203 16.1792,2.0029 2.7142,1.4568 5.299,4.1414 9.2431,3.9968 5.637,6.101 12.3655,-3.4018 6.1593,-10.3522 -3.6352,-2.3838 -7.4743,-2.4526 -9.0234,-6.3309 -1.4824,-4.9681 -5.9183,-5.4839 -9.3703,-1.5828 -3.2609,2.9351 -4.2324,6.0175 -6.5941,1.187 -3.2081,-4.7853 -0.028,-9.6387 -0.347,-15.058 -1.5424,-5.2458 5.2104,-2.3149 8.3292,-2.7478 0.6341,2.6583 5.9572,5.49 6.5941,0 -1.2144,-6.1933 5.1114,-7.3874 4.1645,-12.6621 -3.1653,-3.3132 -8.1372,-7.527 -7.6351,-13.8489 -2.2536,-5.4297 -10.847,-7.2825 -10.7585,-15.036 0.1897,-0.4963 0.1734,-0.8889 0.1734,-1.3849 0,-0.067 -0.026,-0.1389 0,-0.1978 0.037,-0.083 0.1371,-0.1144 0.1736,-0.1979 0.026,-0.058 -0.026,-0.1389 0,-0.1978 0.073,-0.1669 0.2953,-0.2188 0.347,-0.3958 0.037,-0.1251 -0.037,-0.2705 0,-0.3956 0.052,-0.177 0.2739,-0.2289 0.3471,-0.3956 0.026,-0.058 -0.041,-0.1513 0,-0.198 0.041,-0.047 0.1326,0.047 0.1735,0 0.041,-0.047 -0.052,-0.1683 0,-0.1978 0.1035,-0.058 0.2436,0.058 0.3471,0 0.052,-0.03 -0.041,-0.1512 0,-0.1978 0.041,-0.047 0.1218,0.03 0.1736,0 0.073,-0.042 0.1003,-0.1562 0.1733,-0.1979 0.052,-0.03 0.1327,0.047 0.1736,0 0.041,-0.047 -0.052,-0.1684 0,-0.1979 0.1035,-0.058 0.2373,0.042 0.3471,0 0.078,-0.03 0.1003,-0.1561 0.1735,-0.1978 0.074,-0.042 0.799,0 0.8677,0 0.057,0 0.1326,-0.047 0.1735,0 0.041,0.047 0.057,0.1978 0,0.1978 -0.082,0 -0.1735,-0.291 -0.1735,-0.1978 0,0.1474 0.1326,0.2558 0.1735,0.3957 0.033,0.1145 0,0.6199 0,0.7915 0,0.5275 0,1.0551 0,1.5827 0,0.1319 0,0.2637 0,0.3956 0,0.067 -0.041,0.1512 0,0.1978 0.041,0.047 0.1326,-0.047 0.1735,0 0.041,0.047 -0.041,0.1513 0,0.1979 0.041,0.047 0.1327,-0.047 0.1736,0 0.041,0.047 -0.026,0.1389 0,0.1978 0.026,0.059 0.6416,0.7616 0.694,0.7915 0.052,0.03 0.1217,-0.03 0.1735,0 0.073,0.042 0.1003,0.156 0.1735,0.1977 0.039,0.022 0.653,0 0.6942,0 0.243,0 1.3247,0.036 1.3881,0 0.073,-0.042 0.1004,-0.1561 0.1736,-0.1977 0.3836,-0.2187 0.3983,-0.1979 0.6941,-0.1979 0.058,0 0.1186,0.021 0.1735,0 0.1228,-0.047 0.2244,-0.1512 0.3472,-0.1979 0.1092,-0.041 0.7112,0 0.8675,0 0.1158,0 0.2314,0 0.3472,0 0.057,0 0.1216,-0.03 0.1733,0 0.4684,0.2671 -0.01,0.089 0.1736,0.3958 0.1158,0.1318 0.2314,0.2638 0.3471,0.3955 0,0.067 -0.026,0.139 0,0.198 0.037,0.083 0.1477,0.1096 0.1734,0.1978 0.037,0.125 -0.037,0.2706 0,0.3957 0.051,0.1769 0.2954,0.2187 0.3472,0.3957 0,0.9006 -0.082,0.011 0.1734,0.5935 0.045,0.1017 -0.028,0.8272 0,0.9892 0.036,0.2045 0.1293,0.3911 0.1736,0.5934 0.037,0.1687 0,0.4191 0,0.5936 0,0.3958 0,0.7914 0,1.1872 0,0.1317 -0.037,0.2704 0,0.3956 0.041,0.14 0.1327,0.2559 0.1736,0.3958 0.018,0.061 -0.026,0.1388 0,0.1977 0.037,0.083 0.1369,0.1144 0.1734,0.1979 0.026,0.058 -0.052,0.1683 0,0.1978 0.074,0.042 0.7224,0 0.8677,0 0.4627,0 0.9255,0 1.3882,0 0.058,0 0.1327,0.047 0.1735,0 0.041,-0.047 -0.041,-0.1512 0,-0.1978 0.041,-0.047 0.1219,0.03 0.1736,0 0.073,-0.042 0.1054,-0.1461 0.1736,-0.1979 0.1074,-0.082 0.2393,-0.116 0.3469,-0.1977 0.1362,-0.1028 0.2008,-0.3123 0.347,-0.3958 0.1035,-0.058 0.2653,0.093 0.3471,0 0.082,-0.093 -0.082,-0.3025 0,-0.3956 0.041,-0.047 0.1326,0.047 0.1735,0 0.041,-0.047 -0.026,-0.139 0,-0.198 0.023,-0.052 0.4746,-0.5672 0.5207,-0.5934 0.052,-0.03 0.1157,0 0.1735,0 0.058,0 0.1156,0 0.1734,0 0.2893,0 0.5785,0 0.8677,0 0.1736,0 0.347,0 0.5206,0 0.058,0 0.1326,-0.047 0.1735,0 0.053,0.06 -0.053,0.9279 0,0.9891 0.2314,0.2639 0.1665,-0.4196 0.347,0.1979 0.026,0.09 0,1.251 0,1.3849 0,0.048 0.019,0.7471 0,0.7914 -0.037,0.083 -0.128,0.1202 -0.1734,0.1978 -0.072,0.1227 -0.1019,0.273 -0.1736,0.3957 -0.2384,0.4077 -0.3414,-0.014 -0.5205,0.3957 -0.026,0.058 0.041,0.1512 0,0.1978 -0.038,0.043 -0.4609,-0.046 -0.5206,0 -0.1361,0.1029 -0.2162,0.2838 -0.3471,0.3958 -0.1157,0.067 -0.2314,0.1318 -0.347,0.1977 -0.058,0 -0.1218,-0.03 -0.1735,0 -0.073,0.042 -0.1004,0.1562 -0.1736,0.1979 -0.1034,0.058 -0.2373,-0.043 -0.3471,0 -0.1268,0.048 -0.4412,0.2145 -0.5206,0.3957 -0.037,0.084 0,0.911 0,0.9892 0,0.3957 0,0.7913 0,1.187 0,0.1979 -0.042,0.4016 0,0.5936 0.019,0.091 0.1477,0.1097 0.1735,0.1977 0.2205,0.7541 -0.385,0.034 0.1736,0.9894 0.032,0.055 0.1326,-0.047 0.1735,0 0.082,0.093 -0.052,0.2777 0,0.3956 0.037,0.083 0.137,0.1145 0.1736,0.1978 0.053,0.1226 -0.052,0.733 0,0.7915 0.041,0.047 0.1326,-0.047 0.1735,0 0.035,0.041 -0.034,0.515 0,0.5935 0.037,0.083 0.1477,0.1097 0.1736,0.1978 0.037,0.1251 -0.052,0.2777 0,0.3957 0.026,0.058 0.1326,-0.047 0.1735,0 0.082,0.093 -0.052,0.2778 0,0.3956 0.3611,0.8234 -0.012,-0.2114 0.347,0.198 0.041,0.047 -0.041,0.1512 0,0.1978 0.041,0.047 0.1217,-0.03 0.1735,0 0.073,0.042 0.1004,0.1561 0.1736,0.1979 0.1034,0.058 0.2373,-0.042 0.347,0 0.1228,0.047 0.2244,0.1511 0.347,0.1977 0.055,0.021 0.1219,-0.03 0.1736,0 0.073,0.042 0.1003,0.1563 0.1735,0.1979 0.052,0.03 0.1157,0 0.1736,0 0.1155,0 0.2372,-0.042 0.3469,0 0.078,0.03 0.1004,0.1561 0.1736,0.1979 0.051,0.03 0.1157,0 0.1735,0 0.1157,0 0.2314,0 0.3471,0 0.3471,0 0.6942,0 1.0411,0 0.1206,0 0.8049,0.035 0.8677,0 0.073,-0.042 0.1156,-0.132 0.1735,-0.1979 0.058,-0.066 0.1157,-0.1319 0.1735,-0.1979 0.8648,-0.9859 0.1785,-0.017 0.3472,-0.5934 0.041,-0.14 0.1421,-0.2528 0.1734,-0.3958 0.042,-0.1919 -0.054,-0.4057 0,-0.5935 0.041,-0.1398 0.1422,-0.2525 0.1736,-0.3957 0.056,-0.2559 -0.056,-0.5355 0,-0.7914 0.031,-0.143 0.1421,-0.2526 0.1735,-0.3957 0.042,-0.1918 0,-0.3955 0,-0.5934 0,-0.5276 0,-1.0552 0,-1.5828 0,-0.2627 0.039,-1.2088 0,-1.3849 -0.02,-0.091 -0.1371,-0.1144 -0.1735,-0.1978 -0.082,-0.1865 -0.091,-0.4069 -0.1736,-0.5936 -0.037,-0.083 -0.1369,-0.1143 -0.1734,-0.1978 -0.082,-0.1866 -0.091,-0.407 -0.1736,-0.5936 -0.037,-0.083 -0.1369,-0.1143 -0.1736,-0.1977 -0.026,-0.058 0.041,-0.1513 0,-0.1978 -0.091,-0.1039 -0.2556,-0.093 -0.347,-0.198 -0.041,-0.047 0.026,-0.1389 0,-0.1978 -0.073,-0.1669 -0.274,-0.2289 -0.3472,-0.3957 -0.026,-0.058 0.041,-0.1513 0,-0.1979 -0.041,-0.047 -0.1325,0.047 -0.1734,0 -0.082,-0.093 0.082,-0.3023 0,-0.3956 -0.041,-0.047 -0.1327,0.047 -0.1736,0 -0.082,-0.093 0.052,-0.2778 0,-0.3957 -0.1917,-0.4375 -0.1077,-0.062 -0.3469,-0.1979 -0.7222,-0.4117 0.1854,0.014 -0.1735,-0.3957 -0.041,-0.047 -0.1327,0.047 -0.1736,0 -0.082,-0.093 0.082,-0.3023 0,-0.3956 -0.041,-0.047 -0.1326,0.047 -0.1735,0 -0.6773,-0.7721 0.04,-0.1064 -0.1735,-0.5935 -0.037,-0.083 -0.137,-0.1144 -0.1736,-0.1979 -0.2137,-0.4874 0.5037,0.1787 -0.1736,-0.5936 -0.041,-0.047 -0.1326,0.047 -0.1735,0 -0.041,-0.047 0.026,-0.1388 0,-0.1978 -0.037,-0.083 -0.137,-0.1143 -0.1735,-0.1977 -0.026,-0.058 0.026,-0.1389 0,-0.1979 -0.037,-0.083 -0.137,-0.1145 -0.1736,-0.1979 -0.052,-0.1179 0.082,-0.3023 0,-0.3957 -0.091,-0.1039 -0.2752,-0.075 -0.3469,-0.1978 -0.064,-0.1098 0.037,-0.2706 0,-0.3957 -0.026,-0.089 -0.137,-0.1144 -0.1736,-0.1978 -0.026,-0.058 0.041,-0.1512 0,-0.1979 -0.041,-0.047 -0.1326,0.047 -0.1735,0 -0.01,-0.012 0,-0.5455 0,-0.5936 0,-0.5275 0,-1.0551 0,-1.5827 0,-0.1676 0.031,-0.6851 0,-0.7914 -0.1806,-0.6174 -0.1157,0.067 -0.347,-0.1977 -0.082,-0.093 0.082,-0.3025 0,-0.3958 -0.041,-0.047 -0.1219,0.03 -0.1736,0 -0.1463,-0.083 -0.2007,-0.3121 -0.347,-0.3957 -0.052,-0.03 -0.1219,0.03 -0.1736,0 -0.2658,-0.1516 -0.1357,-0.3525 -0.3471,-0.5935 -0.041,-0.047 -0.1217,0.03 -0.1734,0 -0.073,-0.042 -0.1004,-0.156 -0.1735,-0.1978 -0.052,-0.03 -0.1327,0.047 -0.1736,0 -0.041,-0.047 0.041,-0.1513 0,-0.1978 -0.359,-0.4093 0.014,0.6254 -0.3471,-0.1979 -0.026,-0.058 0.041,-0.1512 0,-0.1978 -0.041,-0.047 -0.1254,0.036 -0.1735,0 -0.1362,-0.1028 -0.2109,-0.2923 -0.3471,-0.3958 -0.049,-0.036 -0.1217,0.03 -0.1734,0 -0.073,-0.042 -0.1157,-0.1319 -0.1736,-0.1978 -0.1156,0 -0.2373,0.042 -0.3469,0 -0.078,-0.03 -0.1004,-0.1561 -0.1736,-0.1978 -0.052,-0.03 -0.1157,0 -0.1736,0 -0.1156,0 -0.2313,0 -0.347,0 -0.2892,0 -0.5785,0 -0.8678,0 -0.1156,0 -0.2373,0.042 -0.3469,0 -0.078,-0.03 -0.096,-0.1683 -0.1735,-0.1979 -0.1097,-0.042 -0.2314,0 -0.347,0 -0.2017,0 -0.7104,0.044 -0.8678,0 -0.1254,-0.036 -0.2215,-0.1621 -0.347,-0.1977 -0.1123,-0.032 -0.2372,0.042 -0.347,0 -0.078,-0.03 -0.096,-0.1685 -0.1735,-0.198 -0.1098,-0.042 -0.2349,0.032 -0.3472,0 -0.1254,-0.035 -0.2242,-0.1511 -0.3469,-0.1978 -0.055,-0.021 -0.1218,0.03 -0.1736,0 -0.073,-0.042 -0.1054,-0.1461 -0.1735,-0.1978 -0.1076,-0.082 -0.2395,-0.1161 -0.3471,-0.1979 -0.068,-0.052 -0.1054,-0.1462 -0.1735,-0.1979 -0.072,-0.4671 -0.3637,-0.091 -0.5206,-0.1978 -0.1537,-0.105 -1.0294,-0.8701 -1.2146,-1.187 -0.072,-0.1227 -0.1018,-0.273 -0.1736,-0.3957 -0.046,-0.077 -0.1368,-0.1144 -0.1734,-0.1978 -0.026,-0.058 0.018,-0.1353 0,-0.1979 -0.082,-0.2798 -0.2653,-0.5115 -0.3471,-0.7913 -0.04,-0.1362 0.052,-0.4769 0,-0.5936 -0.037,-0.083 -0.137,-0.1144 -0.1735,-0.1979 -0.031,-0.071 0,-0.8515 0,-0.9892 0,-0.048 -0.01,-0.5872 0,-0.5934 0.041,-0.047 0.1157,0 0.1735,0 0.058,0 0.1157,0 0.1735,0 0.4627,0 0.9254,0 1.3882,0 0.6942,0 1.3882,0 2.0822,0 0.2017,0 0.7104,-0.046 0.8677,0 0.2509,0.071 0.4487,0.3022 0.6942,0.3955 0.1097,0.042 0.2652,-0.093 0.347,0 0.041,0.047 -0.052,0.1685 0,0.1979 0.1035,0.058 0.2349,-0.032 0.3471,0 0.1255,0.036 0.2314,0.132 0.347,0.198 0.1156,0.066 0.2394,0.116 0.3469,0.1977 0.068,0.052 0.1004,0.1562 0.1736,0.1979 0.052,0.03 0.1157,0 0.1736,0 0.1156,0.067 0.2436,0.1097 0.347,0.1978 0.1309,0.112 0.2314,0.2638 0.3471,0.3957 0.058,0.067 0.1004,0.156 0.1735,0.1978 0.052,0.03 0.1219,-0.03 0.1736,0 0.073,0.042 0.1004,0.1562 0.1736,0.1978 0.1034,0.058 0.2372,-0.042 0.3469,0 1.257,0.4778 -0.2736,-0.057 0.5205,0.3958 0.052,0.03 0.1327,-0.047 0.1736,0 0.041,0.047 -0.041,0.1512 0,0.1979 0.041,0.047 0.1157,0 0.1735,0 0.4628,0 0.9255,0 1.3883,0 0.057,0 0.1157,0 0.1735,0 0.058,0 0.1326,0.047 0.1735,0 0.041,-0.047 -0.018,-0.1353 0,-0.1979 0.041,-0.1399 0.1018,-0.2731 0.1736,-0.3958 0.1053,-0.1801 0.4437,-0.4181 0.5205,-0.5935 0.026,-0.058 0,-0.1318 0,-0.1978 0.1157,-0.1319 0.2314,-0.2638 0.347,-0.3957 0.1355,-0.1544 0.4208,-0.4229 0.5206,-0.5936 0.3824,-0.1 0.091,-0.4069 0.1735,-0.5935 0.037,-0.083 0.137,-0.1144 0.1736,-0.1978 0.026,-0.058 -0.026,-0.1388 0,-0.1977 0.3611,-0.8235 -0.012,0.2115 0.3471,-0.1979 0.041,-0.047 -0.026,-0.1389 0,-0.1979 0.073,-0.1669 0.2563,-0.2405 0.3471,-0.3957 0.072,-0.1228 0.082,-0.2914 0.1735,-0.3957 0.091,-0.1039 0.2242,-0.1511 0.3469,-0.1978 0.054,-0.021 0.1327,0.047 0.1736,0 0.041,-0.047 -0.041,-0.1512 0,-0.1978 0.082,-0.093 0.2435,0.058 0.347,0 0.073,-0.042 0.1004,-0.1561 0.1736,-0.1979 0.052,-0.03 0.1218,0.03 0.1735,0 0.2082,-0.1186 0.3124,-0.4749 0.5207,-0.5936 0.1635,-0.093 0.3568,-0.1039 0.5205,-0.1978 0.073,-0.042 0.096,-0.1683 0.1734,-0.1977 0.1099,-0.042 0.2314,0 0.3472,0 0.1735,-0.067 0.3506,-0.1205 0.5205,-0.198 0.1201,-0.054 0.2314,-0.1319 0.347,-0.1978 0.1158,-0.066 0.2437,-0.1096 0.3472,-0.1978 0.1308,-0.112 0.2192,-0.2791 0.3469,-0.3958 0.2038,-0.1858 0.5974,-0.4701 0.8678,-0.5934 0.1698,-0.077 0.3506,-0.1204 0.5205,-0.1979 0.1201,-0.054 0.2244,-0.1512 0.3469,-0.1979 0.055,-0.021 0.1175,0.016 0.1736,0 0.175,-0.05 0.6881,-0.242 0.8677,-0.3955 0.1963,-0.1679 0.3165,-0.4384 0.5206,-0.5937 0.3204,-0.2435 0.7206,-0.3499 1.0411,-0.5935 0.068,-0.052 0.1054,-0.1461 0.1735,-0.1978 0.1076,-0.082 0.2395,-0.116 0.3471,-0.1978 0.2554,-0.194 0.4388,-0.5975 0.694,-0.7915 0.049,-0.036 0.1187,0.021 0.1736,0 0.1228,-0.047 0.2216,-0.162 0.3471,-0.1978 0.1122,-0.032 0.2373,0.042 0.3471,0 0.078,-0.03 0.096,-0.1684 0.1734,-0.1978 0.1098,-0.042 0.2314,0 0.3471,0 0.1157,0 0.2314,0 0.347,0 0.1337,0 0.8103,-0.033 0.8677,0 0.1464,0.083 0.2161,0.2837 0.347,0.3956 0.1035,0.089 0.2437,0.1097 0.3472,0.1979 0.1963,0.1678 0.3469,0.3957 0.5205,0.5936 0.057,0.067 0.1475,0.1096 0.1735,0.1978 0.037,0.1251 -0.037,0.2706 0,0.3956 0.026,0.089 0.1369,0.1145 0.1734,0.1979 0.026,0.058 -0.026,0.1389 0,0.1978 0.037,0.083 0.1371,0.1144 0.1736,0.1979 0.054,0.1243 -0.054,0.6671 0,0.7913 0.037,0.083 0.1369,0.1145 0.1736,0.1979 0.026,0.06 0,0.6547 0,0.7913 0,0.048 -0.01,0.5873 0,0.5936 0.041,0.047 0.1326,-0.047 0.1734,0 2e-4,2e-4 -2e-4,0.5925 0,0.5935 0.026,0.089 0.1371,0.1144 0.1736,0.1978 0.026,0.058 -0.026,0.1388 0,0.1979 0.073,0.167 0.274,0.2289 0.3471,0.3957 0.026,0.058 -0.032,0.1431 0,0.1979 0.09,0.1552 0.2489,0.2464 0.3471,0.3956 0.078,0.1179 0.1017,0.2729 0.1735,0.3957 0.09,0.1552 0.2562,0.2405 0.347,0.3957 0.072,0.1228 0.1018,0.273 0.1735,0.3958 0.046,0.077 0.1369,0.1143 0.1735,0.1977 0.026,0.06 0,0.5044 0,0.5935 0,0.3957 0,0.7914 0,1.1871 0,0.6595 0,1.319 0,1.9785 0,0.1317 0,0.2637 0,0.3955 0,0.198 0.042,0.4017 0,0.5936 -0.02,0.091 -0.1282,0.1204 -0.1735,0.1979 -0.1057,0.1807 -0.148,0.4801 -0.3471,0.5935 -0.1634,0.093 -0.3741,0.073 -0.5205,0.1978 -0.1701,0.1455 -0.1074,0.5025 -0.347,0.5936 -0.1097,0.042 -0.2337,-0.025 -0.3472,0 -0.1793,0.041 -0.3401,0.1635 -0.5206,0.1978 -0.2852,0.054 -0.587,-0.08 -0.8674,0 -0.1256,0.036 -0.2203,0.169 -0.3472,0.198 -0.1701,0.038 -0.347,0 -0.5206,0 -0.347,0 -0.6941,0 -1.0411,0 -0.1736,0 -0.3471,0 -0.5205,0 -0.1736,0 -0.3489,0.028 -0.5206,0 -0.2362,-0.039 -0.4612,-0.139 -0.6941,-0.198 -0.171,-0.043 -1.334,-0.2843 -1.5618,-0.3956 -0.1916,-0.093 -0.3417,-0.2734 -0.5205,-0.3958 -0.1109,-0.076 -0.2314,-0.1318 -0.3471,-0.1978 -0.1157,-0.067 -0.2215,-0.1621 -0.3471,-0.1978 -0.1123,-0.032 -0.2435,0.058 -0.347,0 -0.1464,-0.083 -0.2008,-0.3123 -0.3472,-0.3957 -0.1034,-0.058 -0.2312,0 -0.3469,0 -0.1736,-0.066 -0.357,-0.1039 -0.5205,-0.1979 -0.073,-0.042 -0.1055,-0.146 -0.1736,-0.1977 -0.1076,-0.082 -0.2314,-0.132 -0.347,-0.1979 -0.2314,-0.1319 -0.4628,-0.2638 -0.6941,-0.3957 -0.2314,-0.1319 -0.4488,-0.3025 -0.6942,-0.3957 -0.054,-0.021 -0.1218,0.03 -0.1736,0 -0.073,-0.042 -0.1003,-0.1561 -0.1734,-0.1979 -0.047,-0.027 -0.9626,0 -1.0412,0 -0.042,0 -0.5149,-0.011 -0.5206,0 -0.041,0.047 0,0.132 0,0.1979 0,0.067 0,0.1319 0,0.1979 0,0.5275 0,1.0552 0,1.5827 0,0.066 0,0.1318 0,0.1978 0,0.067 0.026,0.1389 0,0.1978 -0.037,0.083 -0.1369,0.1145 -0.1735,0.1979 -0.026,0.058 0,0.1319 0,0.1979 0,0.1319 0.037,0.2706 0,0.3956 -0.026,0.089 -0.137,0.1145 -0.1735,0.198 -0.026,0.058 0,0.1318 0,0.1977 0,0.1319 0,0.2638 0,0.3957 0,0.1028 -0.023,0.7394 0,0.7914 0.023,0.052 0.4745,0.5672 0.5206,0.5935 0.052,0.03 0.1187,-0.021 0.1736,0 0.1226,0.047 0.2215,0.1621 0.347,0.1978 0.1122,0.032 0.2313,0 0.3469,0 0.1736,0 0.3472,0 0.5207,0 0.347,0 0.694,0 1.0412,0 0.4627,0 0.9254,0 1.3882,0 0.1734,0 0.3559,0.062 0.5205,0 0.078,-0.03 0.1054,-0.146 0.1734,-0.1978 0.088,-0.4358 0.3571,-0.1039 0.5207,-0.1978 0.073,-0.042 0.096,-0.1683 0.1735,-0.1978 0.093,-0.036 0.5472,0 0.6942,0 0.3471,0 0.694,0 1.041,0 0.058,0 0.1326,-0.047 0.1736,0 0.041,0.047 0,0.1319 0,0.1978 0,0.9893 0,1.9783 0,2.9676 0,0.4616 0,0.9232 0,1.385 0,0.066 -0.017,0.564 0,0.5935 0.5756,0.9843 0.08,0.046 0.6941,0.3955 0.052,0.03 -0.041,0.1513 0,0.198 0.041,0.047 0.1158,0 0.1736,0 0.058,0 0.1157,0 0.1735,0 0.347,0 0.6941,0 1.0412,0 0.3356,0 0.9546,0.099 1.2146,-0.198 0.041,-0.047 -0.041,-0.151 0,-0.1977 0.359,-0.4093 -0.014,0.6255 0.347,-0.1978 0.026,-0.058 -0.026,-0.1388 0,-0.1979 0.037,-0.083 0.137,-0.1145 0.1736,-0.1979 0.026,-0.058 -0.026,-0.1388 0,-0.1977 0.037,-0.083 0.1369,-0.1144 0.1736,-0.198 0.026,-0.058 -0.026,-0.1388 0,-0.1978 0.361,-0.8233 -0.012,0.2115 0.347,-0.1978 0.041,-0.047 -0.026,-0.1389 0,-0.1979 0.086,-0.1946 0.6087,-0.5967 0.6941,-0.7913 0.051,-0.118 -0.037,-0.2707 0,-0.3957 0.026,-0.089 0.1368,-0.1145 0.1735,-0.1978 0.026,-0.058 -0.041,-0.1513 0,-0.198 0.041,-0.047 0.1156,0 0.1734,0 0.058,-0.1317 0.1158,-0.2637 0.1736,-0.3955 0.058,-0.132 0.1326,-0.2559 0.1736,-0.3958 0.018,-0.063 -0.041,-0.1511 0,-0.1977 0.041,-0.047 0.1217,0.03 0.1734,0 0.073,-0.042 0.1158,-0.132 0.1736,-0.198 0.058,-0.066 0.1369,-0.1145 0.1736,-0.1978 0.026,-0.058 -0.041,-0.1513 0,-0.1979 0.041,-0.047 0.1326,0.047 0.1735,0 0.041,-0.047 -0.026,-0.1388 0,-0.1978 0.036,-0.082 0.4471,-0.5376 0.5206,-0.5935 0.087,-0.436 0.3569,-0.1039 0.5205,-0.1978 0.1538,-0.087 0.3626,-0.4736 0.5206,-0.5936 0.087,-0.4358 0.357,-0.1039 0.5206,-0.1978 0.073,-0.042 0.096,-0.1683 0.1735,-0.1979 0.1098,-0.042 0.2348,0.032 0.347,0 0.1256,-0.036 0.2216,-0.1621 0.3471,-0.1977 0.1123,-0.032 0.2314,0 0.3471,0 0.2892,0 0.5784,0 0.8676,0 0.1551,0 0.8123,-0.032 0.8676,0 0.1589,0.091 0.3048,0.4489 0.3471,0.5934 0.018,0.062 -0.041,0.1513 0,0.1978 0.041,0.047 0.1327,-0.047 0.1735,0 0.082,0.093 -0.082,0.3025 0,0.3958 0.041,0.047 0.1326,-0.047 0.1735,0 0.082,0.093 -0.052,0.2778 0,0.3957 0.037,0.083 0.137,0.1144 0.1736,0.1978 0.026,0.058 -0.041,0.1512 0,0.1978 0.041,0.047 0.1327,-0.047 0.1736,0 0.041,0.047 -0.026,0.1388 0,0.1978 0.037,0.083 0.1369,0.1145 0.1735,0.1979 0.026,0.058 -0.026,0.1389 0,0.1978 0.037,0.083 0.1156,0.1319 0.1733,0.198 0.058,0.066 0.1055,0.146 0.1736,0.1977 0.1076,0.082 0.2395,0.1161 0.347,0.1979 0.068,0.052 0.1004,0.1561 0.1736,0.1979 0.1094,0.061 0.7582,-0.063 0.8677,0 0.073,0.042 0.1003,0.156 0.1735,0.1977 0.052,0.03 0.1158,0 0.1735,0 0.1156,0 0.2314,0 0.347,0 0.2893,0 0.5785,0 0.8677,0 1.5617,10e-5 3.1234,0 4.6852,0 0.2891,0 0.5784,0 0.8676,0 0.114,0 0.4227,-0.038 0.5206,0 0.1228,0.047 0.2244,0.1512 0.3471,0.1978 0.156,0.059 0.3643,-0.059 0.5205,0 0.1227,0.047 0.2244,0.1513 0.3471,0.198 0.054,0.021 0.1326,-0.047 0.1735,0 0.041,0.047 -0.041,0.1512 0,0.1978 0.035,0.04 0.4518,-0.039 0.5206,0 0.073,0.042 0.096,0.1684 0.1735,0.1978 8e-4,4e-4 0.5204,-10e-5 0.5206,0 0.041,0.047 -0.041,0.1512 0,0.1979 0.041,0.047 0.1217,-0.03 0.1734,0 0.7223,0.4117 -0.1855,-0.014 0.1736,0.3957 0.041,0.047 0.1327,-0.047 0.1736,0 0.041,0.047 -0.041,0.1511 0,0.1978 0.041,0.047 0.1326,-0.047 0.1735,0 0.359,0.4093 -0.5487,-0.016 0.1735,0.3957 0.052,0.03 0.1327,-0.047 0.1736,0 0.041,0.047 -0.026,0.1388 0,0.1978 0.037,0.083 0.1369,0.1144 0.1736,0.1978 0.026,0.058 -0.026,0.1389 0,0.198 0.037,0.083 0.1368,0.1145 0.1733,0.1977 0.026,0.058 -0.026,0.139 0,0.1979 0.037,0.083 0.1371,0.1144 0.1736,0.1979 0.026,0.058 -0.026,0.1388 0,0.1978 0.037,0.083 0.1369,0.1144 0.1736,0.1977 0.024,0.056 0,0.8837 0,0.9894 0,0.1029 0.023,0.7393 0,0.7914 -0.073,0.1667 -0.274,0.2286 -0.3472,0.3956 -0.026,0.058 0.026,0.1389 0,0.1979 -0.037,0.083 -0.1155,0.1318 -0.1733,0.1979 -0.058,0.066 -0.1004,0.1561 -0.1736,0.1977 -0.052,0.03 -0.1218,-0.03 -0.1736,0 -0.1463,0.083 -0.2007,0.3124 -0.347,0.3957 -0.052,0.03 -0.1219,-0.03 -0.1736,0 -0.073,0.042 -0.1004,0.1562 -0.1736,0.1978 -0.1034,0.058 -0.2652,-0.093 -0.347,0 -0.041,0.047 0.041,0.1512 0,0.1979 -0.053,0.06 -0.8139,-0.062 -0.8676,0 -0.041,0.047 0.041,0.1512 0,0.1978 -0.01,0.011 -0.4785,0 -0.5206,0 -0.5783,0 -1.1568,0 -1.7352,0 -0.1208,0 -0.8048,0.035 -0.8676,0 -0.073,-0.042 -0.096,-0.1684 -0.1735,-0.1978 -0.1098,-0.042 -0.2373,0.042 -0.3471,0 -0.078,-0.03 -0.1003,-0.1561 -0.1735,-0.1979 -0.052,-0.03 -0.1218,0.03 -0.1735,0 -0.073,-0.042 -0.1004,-0.1561 -0.1736,-0.1978 -0.052,-0.03 -0.1157,0 -0.1736,0 -0.1156,-0.067 -0.2394,-0.1161 -0.347,-0.1978 -0.1362,-0.1029 -0.1919,-0.3367 -0.347,-0.3956 -0.1098,-0.042 -0.2373,0.042 -0.3471,0 -0.078,-0.03 -0.1055,-0.1462 -0.1736,-0.1979 -0.3988,-0.3034 -0.4685,-0.092 -0.8675,-0.3958 -0.068,-0.052 -0.1004,-0.1561 -0.1736,-0.1977 -0.052,-0.03 -0.1156,0 -0.1736,0 -0.1156,-0.067 -0.2393,-0.1161 -0.3469,-0.198 -0.068,-0.052 -0.096,-0.1682 -0.1736,-0.1978 -0.1561,-0.058 -0.3644,0.059 -0.5206,0 -0.1227,-0.047 -0.2244,-0.1511 -0.347,-0.1977 -0.054,-0.021 -0.1218,0.03 -0.1735,0 -0.073,-0.043 -0.1004,-0.1562 -0.1736,-0.1979 -0.052,-0.03 -0.1156,0 -0.1734,0 -0.1158,-0.066 -0.2394,-0.1161 -0.3471,-0.1979 -0.068,-0.052 -0.096,-0.1683 -0.1735,-0.1979 -0.79,0 -0.01,0.093 -0.5207,-0.1978 -0.052,-0.03 -0.1156,0 -0.1734,0 -0.1158,0 -0.2373,0.042 -0.3472,0 -0.078,-0.03 -0.1004,-0.1561 -0.1735,-0.1978 -0.039,-0.022 -0.6527,0 -0.6939,0 -0.6942,0 -1.3884,0 -2.0825,0 -0.4626,0 -0.9254,0 -1.3882,0 -0.1469,0 -0.6008,-0.036 -0.6941,0 -0.078,0.03 -0.1369,0.1144 -0.1735,0.1978 -0.026,0.058 0.058,0.1978 0,0.1978 -0.058,0 0,-0.2637 0,-0.1978 0,0.1978 0,0.3957 0,0.5936 0,0.067 0,0.1318 0,0.1979 0,0.066 0.041,0.151 0,0.1977 -0.041,0.047 -0.1326,-0.047 -0.1735,0 -0.041,0.047 0,0.132 0,0.1978 0,0.067 0,0.132 0,0.198 0,0.1656 0.038,1.256 0,1.3848 -0.041,0.1398 -0.1327,0.2558 -0.1736,0.3957 -0.038,0.1288 0,1.2192 0,1.3849 0,0.067 0,0.1319 0,0.1978 0,0.067 0.041,0.1512 0,0.1979 -0.041,0.047 -0.1326,-0.047 -0.1735,0 -0.082,0.093 0.037,0.2707 0,0.3958 -0.4189,1.433 0.05,-0.3121 -0.347,0.5934 -0.026,0.058 0.041,0.1512 0,0.1979 -0.041,0.047 -0.1327,-0.047 -0.1736,0 -0.041,0.047 0.026,0.1388 0,0.1978 -0.023,0.052 -0.4744,0.5673 -0.5205,0.5936 -0.052,0.03 -0.1218,-0.03 -0.1735,0 -0.073,0.042 -0.096,0.1683 -0.1735,0.1978 -0.1097,0.042 -0.2373,-0.042 -0.3472,0 -0.1175,0.044 -0.388,0.518 -0.5206,0.5935 -0.1034,0.058 -0.2435,-0.058 -0.3469,0 -0.073,0.042 -0.1004,0.1561 -0.1736,0.1978 -0.2393,0.1365 -0.1551,-0.2395 -0.3469,0.1978 -0.026,0.058 0,0.1319 0,0.1979 0,0.067 0,0.132 0,0.1978 0,0.3958 0,0.7913 0,1.1871 0,0.2647 -0.069,1.049 0.1734,1.187 0.1552,0.089 0.3505,-0.039 0.5206,0 0.1268,0.029 0.2215,0.1621 0.347,0.198 0.1122,0.032 0.2314,0 0.347,0 0.1158,0 0.2314,0 0.3472,0 0.4049,0 0.8097,0 1.2146,0 0.1156,0 0.2314,0 0.347,0 0.1736,0 0.3595,0.073 0.5206,0 0.025,-0.013 0.6357,-0.7414 0.6941,-0.7914 0.1035,-0.089 0.2314,-0.132 0.3471,-0.1979 0.2314,-0.1319 0.4789,-0.2322 0.6942,-0.3957 0.068,-0.052 0.1156,-0.132 0.1734,-0.1978 0.058,-0.067 0.1282,-0.1202 0.1735,-0.198 0.021,-0.036 0.336,-0.7785 0.3471,-0.7913 0.041,-0.047 0.1186,0.021 0.1735,0 0.1227,-0.047 0.2556,-0.093 0.3471,-0.1978 0.041,-0.047 -0.058,-0.1979 0,-0.1979 0.057,0 -0.058,0.1979 0,0.1979 0.082,0 0.1003,-0.1561 0.1735,-0.1979 0.01,0 0.5115,0 0.5206,0 0.073,0.042 0.1157,0.1319 0.1735,0.1979 0.058,0.067 0.137,0.1146 0.1736,0.1978 0.026,0.058 -0.041,0.1513 0,0.1979 0.041,0.047 0.1218,-0.03 0.1736,0 0.073,0.043 0.1054,0.1461 0.1735,0.1979 0.1075,0.082 0.2554,0.093 0.3469,0.1978 0.359,0.4093 -0.5485,-0.016 0.1735,0.3957 0.046,0.026 0.6035,0 0.6941,0 0.5207,0 1.0413,0 1.5618,0 0.058,0 0.1156,0 0.1734,0 0.1158,0 0.2509,-0.073 0.3472,0 0.508,0.386 0.036,0.2788 0.1736,0.5935 0.361,0.8233 -0.012,-0.2115 0.347,0.1979 0.041,0.047 -0.026,0.1388 0,0.1979 0.037,0.083 0.1369,0.1143 0.1736,0.1977 0.034,0.078 -0.035,0.553 0,0.5935 0.041,0.047 0.1325,-0.047 0.1733,0 0.01,0.011 0,0.5457 0,0.5937 0,0.2638 0,0.5276 0,0.7912 0,0.067 0,0.1319 0,0.1979 0,0.067 0.026,0.1389 0,0.1978 -0.037,0.083 -0.1156,0.1319 -0.1733,0.1978 -0.058,0.066 -0.1004,0.1563 -0.1736,0.198 -0.1035,0.058 -0.2653,-0.093 -0.347,0 -0.041,0.047 0.041,0.1512 0,0.1978 -0.041,0.047 -0.1219,-0.03 -0.1736,0 -0.073,0.042 -0.1004,0.1561 -0.1736,0.1979 -0.052,0.03 -0.1156,0 -0.1736,0 -0.1156,0.067 -0.2394,0.1159 -0.3469,0.1977 -0.068,0.052 -0.1004,0.1563 -0.1736,0.1979 -0.052,0.03 -0.1186,-0.021 -0.1734,0 -0.1228,0.047 -0.2243,0.1512 -0.3471,0.1979 -0.054,0.021 -0.1217,-0.03 -0.1735,0 -0.073,0.042 -0.096,0.1682 -0.1735,0.1978 -0.1098,0.042 -0.2373,-0.042 -0.3472,0 -0.078,0.03 -0.1054,0.146 -0.1734,0.1977 -0.1077,0.082 -0.2244,0.1514 -0.3472,0.1981 -0.054,0.021 -0.1156,0 -0.1735,0 -0.1157,0.067 -0.2243,0.1512 -0.3471,0.1978 -0.1096,0.042 -0.2434,-0.058 -0.3468,0 -0.073,0.042 -0.1004,0.1561 -0.1736,0.1977 -0.079,0.046 -0.8298,-0.011 -0.8677,0 -0.08,0.023 -0.1003,0.1562 -0.1735,0.1979 -0.052,0.03 -0.1157,0 -0.1736,0 -0.1157,0 -0.2373,-0.042 -0.347,0 -0.078,0.03 -0.1003,0.1561 -0.1735,0.1979 -0.065,0.037 -0.8233,0 -1.0412,0 -0.9833,0 -1.9667,0 -2.9499,0 -0.4628,0 -0.9255,0 -1.3882,0 -0.1158,0 -0.2313,0 -0.3471,0 -0.1155,0 -0.2347,0.032 -0.3469,0 -0.1256,-0.036 -0.2244,-0.1513 -0.3472,-0.1979 -0.054,-0.021 -0.1217,0.03 -0.1734,0 -0.073,-0.042 -0.1004,-0.1561 -0.1736,-0.1979 -0.051,-0.03 -0.1327,0.047 -0.1736,0 -0.041,-0.047 0.041,-0.151 0,-0.1977 -0.041,-0.047 -0.1156,0 -0.1735,0 0,-0.067 0.041,-0.1513 0,-0.1978 -0.041,-0.047 -0.1218,0.03 -0.1735,0 -0.1464,-0.083 -0.2007,-0.3124 -0.3471,-0.3958 -0.052,-0.03 -0.1217,0.03 -0.1734,0 -0.073,-0.042 -0.1158,-0.1319 -0.1736,-0.1978 -0.058,-0.066 -0.1369,-0.1145 -0.1736,-0.1979 -0.026,-0.058 0,-0.1319 0,-0.1979 -0.057,-0.1318 -0.1017,-0.2728 -0.1735,-0.3956 -0.046,-0.077 -0.1369,-0.1145 -0.1734,-0.1978 -0.026,-0.058 0.041,-0.1513 0,-0.198 -0.1475,-0.1681 -0.3732,-0.2275 -0.5206,-0.3956 -0.091,-0.1039 -0.1158,-0.2638 -0.1736,-0.3957 -0.2154,-0.4911 -0.4036,-1.0494 -0.5205,-1.5828 -0.014,-0.065 0.052,-0.1682 0,-0.1978 -0.1035,-0.058 -0.2436,0.058 -0.3471,0 -0.052,-0.03 0.026,-0.1388 0,-0.1977 -0.037,-0.083 -0.1281,-0.1204 -0.1735,-0.1979 -0.072,-0.1227 -0.1019,-0.2731 -0.1736,-0.3958 -0.09,-0.1552 -0.2563,-0.2404 -0.3471,-0.3956 -0.072,-0.1227 -0.082,-0.2915 -0.1735,-0.3957 -0.041,-0.047 -0.1326,0.047 -0.1735,0 -0.041,-0.047 0.026,-0.1389 0,-0.1978 -0.023,-0.052 -0.4744,-0.5673 -0.5205,-0.5936 -0.051,-0.03 -0.1326,0.047 -0.1735,0 -0.041,-0.047 0.041,-0.1512 0,-0.1979 -0.041,-0.047 -0.1327,0.047 -0.1736,0 -0.041,-0.047 0.041,-0.1511 0,-0.1978 -0.041,-0.047 -0.1156,0 -0.1735,0 -0.082,0 -0.8598,-0.012 -0.8677,0 -0.041,0.047 0,0.1319 0,0.1978 0,0.1377 0.031,0.9178 0,0.9893 -0.037,0.083 -0.1369,0.1144 -0.1736,0.1977 -0.026,0.058 0,0.132 0,0.198 0,0.1319 0,0.2638 0,0.3956 0,0.3958 0,0.7914 0,1.1872 0,0.1365 -0.026,0.7312 0,0.7914 0.037,0.083 0.1538,0.1074 0.1736,0.1977 0.042,0.192 -0.042,0.4016 0,0.5935 0.019,0.091 0.1282,0.1203 0.1736,0.1979 0.6291,1.4345 -0.1829,-0.3128 0.347,0.5936 0.072,0.1227 0.082,0.2914 0.1736,0.3957 0.091,0.1039 0.2436,0.1097 0.347,0.1977 0.1309,0.112 0.2162,0.2838 0.3471,0.3958 0.1035,0.089 0.2314,0.1317 0.347,0.1978 0.1157,0.066 0.2243,0.1511 0.347,0.1977 0.054,0.021 0.1157,0 0.1735,0 0.4812,0 -0.277,-0.03 0.5207,0.1981 0.1122,0.032 0.2314,0 0.347,0 0.1158,0 0.2314,0 0.3471,0 0.4048,0 0.8098,0 1.2146,0 0.4628,0 0.9254,0 1.3882,0 0.2314,0 0.4697,-0.065 0.6942,0 0.08,0.022 0.1004,0.156 0.1736,0.1978 0.1023,0.058 0.4011,-0.046 0.5205,0 0.1226,0.047 0.2243,0.1512 0.3469,0.1977 0.054,0.021 0.1187,-0.021 0.1736,0 0.1227,0.047 0.2244,0.1512 0.347,0.1979 0.055,0.021 0.1219,-0.03 0.1736,0 0.073,0.042 0.1004,0.1561 0.1736,0.1979 0.1035,0.058 0.2436,-0.058 0.347,0 0.1464,0.083 0.2008,0.3121 0.3471,0.3956 0.052,0.03 0.1186,-0.021 0.1734,0 0.1228,0.047 0.2244,0.1512 0.3471,0.1978 0.054,0.021 0.1217,-0.03 0.1735,0 0.1463,0.083 0.2109,0.2924 0.3471,0.3958 0.1076,0.082 0.2244,0.1512 0.347,0.1978 0.1098,0.042 0.2653,-0.093 0.3471,0 0.041,0.047 -0.041,0.1512 0,0.1978 0.041,0.047 0.1218,-0.03 0.1736,0 0.073,0.043 0.1002,0.1562 0.1734,0.198 0.051,0.03 0.1326,-0.047 0.1736,0 0.041,0.047 -0.041,0.1511 0,0.1977 0.041,0.047 0.1217,-0.03 0.1735,0 0.073,0.042 0.1004,0.1562 0.1735,0.1979 0.052,0.03 0.1327,-0.047 0.1736,0 0.041,0.047 -0.041,0.1511 0,0.1978 0.082,0.093 0.2653,-0.093 0.3471,0 0.3589,0.4093 -0.5487,-0.016 0.1734,0.3958 0.1035,0.058 0.2436,-0.058 0.3471,0 0.073,0.042 0.1157,0.1318 0.1735,0.1978 0.058,0.067 0.1369,0.1144 0.1735,0.1978 0.1197,0.2729 -0.2101,0.177 0.1735,0.3957 0.1035,0.058 0.2437,-0.058 0.3471,0 0.073,0.042 0.1004,0.1561 0.1735,0.1978 0.052,0.03 0.1218,-0.03 0.1736,0 0.1464,0.083 0.2007,0.3123 0.347,0.3956 0.052,0.03 0.1218,-0.03 0.1736,0 0.073,0.042 0.1004,0.1562 0.1736,0.198 0.052,0.03 0.1218,-0.03 0.1735,0 0.1461,0.083 0.2005,0.3122 0.3469,0.3956 0.052,0.03 0.1156,0 0.1735,0 0.1735,0 0.3471,0 0.5207,0 0.5206,0 1.0411,0 1.5617,0 0.5205,0 1.0411,0 1.5616,0 0.1158,0 0.2314,0 0.3472,0 0.057,0 0.1217,0.03 0.1735,0 0.1326,-0.075 0.4032,-0.5489 0.5207,-0.5936 0.2978,-0.1131 0.3577,0.1735 0.5205,-0.1978 0.026,-0.058 0,-0.1318 0,-0.1978 0,-0.132 -0.028,-0.2678 0,-0.3957 0.031,-0.1431 0.1254,-0.2586 0.1735,-0.3956 0.068,-0.1937 0.091,-0.4071 0.1734,-0.5936 0.037,-0.083 0.1282,-0.1203 0.1736,-0.1978 0.072,-0.1227 0.1017,-0.2731 0.1735,-0.3956 0.046,-0.077 0.137,-0.1145 0.1735,-0.198 0.026,-0.058 0,-0.1318 0,-0.1978 0,-0.1318 -0.028,-0.2677 0,-0.3957 0.031,-0.143 0.1482,-0.2511 0.1736,-0.3957 0.034,-0.194 0,-0.3956 0,-0.5935 0,-0.2638 0,-0.5276 0,-0.7915 0,-0.6593 0,-1.3188 0,-1.9783 0,-0.2589 -0.039,-0.766 0,-0.9891 0.036,-0.2046 0.1291,-0.3913 0.1736,-0.5937 0.048,-0.219 -0.055,-0.8004 0,-0.9891 0.041,-0.1399 0.1326,-0.2558 0.1735,-0.3958 0.037,-0.1252 -0.052,-0.2776 0,-0.3956 0.037,-0.083 0.1369,-0.1145 0.1735,-0.198 0.026,-0.058 -0.026,-0.1387 0,-0.1977 0.037,-0.083 0.1157,-0.1319 0.1736,-0.1978 0.058,-0.066 0.1003,-0.1561 0.1735,-0.1979 0.053,-0.03 0.4423,0 0.5204,0 0.2893,0 0.5785,0 0.8677,0 0.058,0 0.1157,0 0.1736,0 0.058,0 0.1217,-0.03 0.1735,0 0.073,0.043 0.1004,0.1561 0.1736,0.1979 0.2394,0.1363 0.1552,-0.2396 0.3469,0.1978 0.1537,0.3502 -0.258,0.068 0.1736,0.3957 0.1076,0.082 0.2395,0.116 0.347,0.1978 0.2387,0.1815 0.1786,0.3053 0.3471,0.5936 0.1052,0.1801 0.4436,0.4181 0.5206,0.5934 0.026,0.058 -0.026,0.1389 0,0.198 0.037,0.083 0.1369,0.1144 0.1735,0.1977 0.026,0.059 0,0.5044 0,0.5937 0,0.7912 0,1.5827 0,2.374 0,0.105 -0.024,0.9327 0,0.9893 0.036,0.082 0.447,0.5375 0.5206,0.5935 0.1076,0.082 0.2243,0.1512 0.347,0.1978 0.054,0.021 0.1327,-0.047 0.1736,0 0.041,0.047 -0.041,0.1511 0,0.1978 0.041,0.047 0.1218,-0.03 0.1735,0 0.073,0.042 0.1003,0.1561 0.1735,0.1978 0.052,0.03 0.1218,-0.03 0.1736,0 0.073,0.042 0.1004,0.1562 0.1736,0.1979 0.4273,0.2437 -0.1567,-0.5743 0.5205,0.1979 0.041,0.047 -0.041,0.1512 0,0.1978 0.041,0.047 0.1325,-0.047 0.1733,0 0.041,0.047 -0.026,0.1389 0,0.1978 0.073,0.1669 0.2954,0.2188 0.3472,0.3957 0.037,0.1252 -0.037,0.2705 0,0.3957 0.026,0.089 0.1369,0.1145 0.1736,0.1977 0.052,0.1181 -0.028,0.2679 0,0.3959 0.4382,1.9989 -0.062,-0.1429 0.347,0.7913 0.026,0.058 0,0.1318 0,0.1978 0,0.132 0,0.2637 0,0.3958 0,0.3297 0,0.6594 0,0.9891 0,1.0552 0,2.1104 0,3.1656 0,0.7254 0,1.4508 0,2.1763 0,0.083 0.026,1.1281 0,1.187 -0.037,0.083 -0.1369,0.1144 -0.1736,0.1978 -0.026,0.058 0,0.1319 0,0.1977 0,0.132 0.028,0.2678 0,0.3959 -0.031,0.143 -0.1422,0.2525 -0.1734,0.3956 -0.028,0.1279 0.028,0.2678 0,0.3957 -0.031,0.1431 -0.1422,0.2526 -0.1736,0.3956 -0.028,0.128 0.037,0.2706 0,0.3958 -0.026,0.089 -0.1369,0.1144 -0.1736,0.1978 -0.019,0.044 0,0.7444 0,0.7914 0,0.4616 0,0.9234 0,1.3849 0,1.0552 0,2.1103 0,3.1656 0,0.268 0.038,1.2539 0,1.3849 -0.026,0.089 -0.1244,0.1232 -0.1736,0.1977 -0.125,0.1902 -0.2434,0.3871 -0.3469,0.5934 -0.1284,0.2562 -0.1814,0.565 -0.3469,0.7915 -0.2873,0.3929 -1.0628,0.6058 -1.3884,0.7913 -0.1865,0.1065 -0.3395,0.2778 -0.5205,0.3958 -0.2246,0.1462 -0.4696,0.2494 -0.6941,0.3957 -0.181,0.118 -0.3289,0.302 -0.5206,0.3956 -0.2192,0.1075 -0.4647,0.1232 -0.6941,0.1979 -0.8278,0.2697 -1.6252,0.6454 -2.4293,0.9892 -0.4532,0.1937 -0.9792,0.2826 -1.3883,0.5935 -0.1362,0.1029 -0.2007,0.3123 -0.3469,0.3957 -0.052,0.03 -0.1327,-0.047 -0.1736,0 -0.041,0.047 0.041,0.1512 0,0.1979 -0.041,0.047 -0.1327,-0.047 -0.1736,0 -0.041,0.047 0.026,0.1387 0,0.1978 -0.037,0.083 -0.1369,0.1145 -0.1735,0.1978 -0.026,0.058 0.026,0.139 0,0.198 -0.037,0.083 -0.1281,0.1201 -0.1735,0.1978 -0.072,0.1227 -0.107,0.2692 -0.1736,0.3956 -0.1073,0.2039 -0.2537,0.3809 -0.3469,0.5935 -0.026,0.058 0.018,0.1352 0,0.1978 -0.041,0.14 -0.1327,0.2559 -0.1736,0.3959 -0.037,0.1251 0,0.2638 0,0.3955 0,0.4618 0,0.9234 0,1.385 0,0.078 -0.037,0.9047 0,0.9892 0.037,0.083 0.1477,0.1097 0.1736,0.1977 0.038,0.1311 0,1.1168 0,1.3849 0,0.067 0.041,0.1513 0,0.1979 -0.041,0.047 -0.1187,-0.021 -0.1736,0 -1.257,0.4778 0.2735,-0.057 -0.5206,0.3957 -0.1035,0.058 -0.2653,-0.093 -0.3472,0 -0.041,0.047 0.041,0.1512 0,0.1979 -0.2157,0.2461 -0.4361,0.1978 -0.6939,0.1978 -0.058,0 -0.1219,-0.03 -0.1736,0 -0.073,0.042 -0.096,0.1684 -0.1735,0.198 -0.08,0.03 -0.6169,-0.045 -0.6942,0 -0.073,0.042 -0.1002,0.156 -0.1734,0.1977 -0.052,0.03 -0.1158,0 -0.1736,0 -0.1157,0 -0.2373,-0.042 -0.3471,0 -0.6431,0.2445 0.2115,0.1978 -0.3471,0.1978 0,0.3297 0.048,0.664 0,0.9893 -0.027,0.1839 -0.2736,0.2288 -0.3468,0.3957 -0.026,0.058 0.026,0.1387 0,0.1978 -0.037,0.083 -0.1282,0.1202 -0.1736,0.1977 -0.072,0.1228 -0.1018,0.2731 -0.1736,0.3959 -0.046,0.077 -0.1476,0.1096 -0.1735,0.1978 -0.037,0.1251 0.037,0.2706 0,0.3957 -0.051,0.1769 -0.2739,0.2288 -0.3471,0.3956 -0.052,0.118 0.052,0.2778 0,0.3958 -0.093,0.2126 -0.2695,0.3727 -0.347,0.5935 -0.043,0.1224 0,0.2637 0,0.3956 0,0.067 0.026,0.1389 0,0.1979 -0.037,0.083 -0.137,0.1144 -0.1736,0.1978 -0.026,0.058 0,0.1319 0,0.1979 0,0.066 0,0.1318 0,0.1979 0,0.3956 0,0.7913 0,1.187 0,0.2159 -0.038,0.8613 0,0.9893 0.041,0.1398 0.1018,0.2728 0.1736,0.3956 0.046,0.077 0.1536,0.1075 0.1735,0.1978 0.042,0.192 -0.055,0.4058 0,0.5936 0.066,0.2257 0.2219,0.4034 0.3471,0.5936 0.05,0.074 0.1476,0.1096 0.1735,0.1977 0.037,0.1252 -0.051,0.2778 0,0.3957 0.073,0.1668 0.249,0.2464 0.3471,0.3957 0.078,0.118 0.1018,0.273 0.1736,0.3957 0.3308,0.5661 0.032,-0.3029 0.3468,0.5935 0.068,0.1936 0.1057,0.3998 0.1736,0.5935 0.048,0.137 0.1327,0.2559 0.1735,0.3957 0.018,0.062 -0.052,0.1685 0,0.1979 0.1035,0.058 0.2374,-0.042 0.3471,0 0.106,0.04 0.5479,0.6803 0.6942,0.7914 0.1076,0.082 0.2314,0.1317 0.347,0.1978 0.1158,0.066 0.2243,0.1512 0.3471,0.1978 0.054,0.021 0.1217,-0.03 0.1734,0 0.1866,0.1064 0.327,0.3075 0.5205,0.3958 0.1075,0.049 0.2338,-0.025 0.3472,0 0.4995,0.1139 0.8886,0.4795 1.3882,0.5934 0.1135,0.025 0.2348,-0.032 0.3471,0 0.1254,0.036 0.227,0.143 0.3469,0.1979 0.1699,0.077 0.3509,0.1203 0.5207,0.1978 0.12,0.054 0.2242,0.1512 0.347,0.1978 0.054,0.021 0.1186,-0.021 0.1735,0 0.1227,0.047 0.227,0.1431 0.3471,0.1979 0.1699,0.077 0.3431,0.1473 0.5206,0.1979 0.1389,0.04 0.4165,-0.079 0.5206,0 0.1076,0.082 0.096,0.2777 0.1735,0.3957 0.098,0.1492 0.2161,0.2837 0.347,0.3956 0.1034,0.089 0.2436,0.1096 0.3471,0.1979 0.1309,0.1118 0.2162,0.2838 0.347,0.3956 0.1035,0.089 0.2557,0.093 0.3471,0.198 0.091,0.1039 0.1018,0.2729 0.1736,0.3956 0.046,0.077 0.1281,0.1203 0.1735,0.1978 0.072,0.1227 0.1157,0.2637 0.1734,0.3957 0.058,0.1318 0.1255,0.2587 0.1736,0.3957 0.068,0.1937 0.08,0.4147 0.1735,0.5935 0.2964,0.5631 0.3864,0.179 0.5206,0.7913 0.056,0.2561 -0.086,0.5466 0,0.7915 0.078,0.2208 0.281,0.3679 0.347,0.5935 0.054,0.1877 -0.028,0.3983 0,0.5935 0.03,0.2058 0.1435,0.3879 0.1736,0.5935 0.028,0.1952 0,0.3958 0,0.5936 0,0.2638 0,0.5277 0,0.7913 0,0.1319 -0.037,0.2707 0,0.3957 0.026,0.089 0.1476,0.1097 0.1735,0.198 0.025,0.085 0,1.3074 0,1.3848 0,0.7912 0,1.5827 0,2.374 0,1.1212 0,2.2423 0,3.3633 0,0.3299 -0.032,0.6617 0,0.9894 0.1078,1.1063 0.1826,0.447 0.347,1.3848 0.022,0.1294 -0.037,0.2706 0,0.3957 0.082,0.2798 0.2452,0.5202 0.347,0.7914 0.072,0.1917 0.091,0.4071 0.1736,0.5935 0.037,0.083 0.1477,0.1097 0.1736,0.1979 0.037,0.1251 -0.028,0.2677 0,0.3955 0.031,0.1432 0.1254,0.2588 0.1735,0.3959 0.068,0.1936 0.1056,0.3998 0.1735,0.5935 0.048,0.1369 0.1327,0.2558 0.1736,0.3956 0.018,0.062 -0.032,0.143 0,0.1978 0.09,0.1552 0.2629,0.2358 0.3469,0.3958 0.094,0.1789 0.091,0.407 0.1736,0.5936 0.037,0.083 0.1282,0.1201 0.1736,0.1977 0.8074,1.381 -0.77,-0.9727 0.5205,0.9893 0.049,0.074 0.1282,0.1202 0.1736,0.1978 0.072,0.1227 0.1017,0.2731 0.1734,0.3957 0.1605,0.2744 0.3526,0.523 0.5206,0.7914 0.1213,0.1934 0.2314,0.3956 0.3472,0.5935 0.2313,0.3957 0.427,0.8217 0.694,1.187 0.2618,0.3583 0.6058,0.6311 0.8676,0.9892 0.1693,0.2317 0.7037,1.0579 0.8677,1.385 0.1283,0.256 0.2562,0.5151 0.347,0.7913 0.084,0.2547 0.055,0.5554 0.1736,0.7915 0.1217,0.2428 0.3987,0.3505 0.5205,0.5935 0.1183,0.236 0.108,0.5299 0.1735,0.7914 0.051,0.2005 0.1057,0.3998 0.1736,0.5934 0.048,0.137 0.138,0.2539 0.1735,0.3957 0.081,0.3234 0.081,0.6704 0.1735,0.9893 0.082,0.2796 0.2419,0.5218 0.347,0.7913 0.4018,1.0306 0.5988,2.1568 1.0413,3.1655 0.5033,1.1481 0.2378,0 0.694,1.3849 0.084,0.2546 0.089,0.5367 0.1735,0.7915 0.9072,2.7577 -0.2556,-1.468 0.6941,1.7805 0.1226,0.4191 0.2784,1.3886 0.3472,1.7806 0.057,0.3297 0.081,0.6701 0.1734,0.989 0.082,0.28 0.2188,0.5354 0.3471,0.7915 0.1035,0.2065 0.2811,0.3679 0.347,0.5935 0.055,0.1878 -0.034,0.3996 0,0.5937 0.025,0.1445 0.1255,0.2587 0.1735,0.3956 0.068,0.1937 0.08,0.4146 0.1736,0.5935 0.1683,0.3199 0.5257,0.4715 0.694,0.7914 0.094,0.1788 0.059,0.4307 0.1736,0.5935 0.1303,0.1857 0.3472,0.2638 0.5205,0.3957 0.3865,0.2937 0.7801,0.5932 1.2147,0.7913 0.1699,0.077 0.3571,0.1039 0.5206,0.1979 0.1865,0.1063 0.3228,0.3205 0.5206,0.3957 0.1647,0.062 0.3611,-0.077 0.5206,0 0.2658,0.1299 0.4355,0.4461 0.6942,0.5935 0.1034,0.058 0.2335,-0.025 0.3469,0 0.1794,0.041 0.3412,0.1569 0.5206,0.1979 0.1135,0.025 0.2349,-0.032 0.3471,0 0.1255,0.035 0.2202,0.1689 0.3471,0.1978 0.723,0.1649 0.2892,-0.1096 0.8676,0 0.4704,0.09 0.9149,0.3282 1.3882,0.3958 0.2296,0.032 0.4626,0 0.694,0 0.1736,0 0.3505,-0.039 0.5206,0 0.1269,0.029 0.2216,0.162 0.3472,0.1977 0.3012,0.085 0.7397,-0.087 1.041,0 0.1255,0.035 0.2216,0.1621 0.347,0.1978 0.2245,0.065 0.4674,-0.052 0.6942,0 0.1794,0.041 0.3432,0.1473 0.5206,0.1979 0.056,0.016 0.1157,0 0.1735,0 0.1157,0 0.2313,0 0.347,0 0.5207,0 1.0413,0 1.5618,0 0.1157,0 0.2336,-0.025 0.347,0 0.1794,0.041 0.3472,0.1319 0.5206,0.1978 0.2314,0 0.4659,-0.043 0.6941,0 0.1276,0.024 0.2217,0.162 0.347,0.1979 0.3013,0.087 0.74,-0.086 1.0413,0 0.1254,0.035 0.2244,0.1512 0.3471,0.1979 0.1453,0.055 0.5789,-0.066 0.6939,0 0.073,0.042 0.1004,0.1561 0.1736,0.1978 0.1091,0.062 0.5851,-0.062 0.6941,0 0.073,0.042 0.096,0.1684 0.1736,0.1978 0.1097,0.042 0.2314,0 0.347,0 0.1158,0.067 0.2244,0.1512 0.3471,0.1979 0.067,0.025 0.4936,-0.031 0.5205,0 0.041,0.047 -0.041,0.1512 0,0.1978 0.048,0.054 0.6,-0.054 0.6942,0 0.073,0.042 0.1156,0.1318 0.1734,0.1978 1.0991,10e-5 2.198,0 3.2971,0 0.1804,0 0.9047,-0.039 1.0411,0 0.1254,0.036 0.2269,0.1431 0.347,0.1978 0.1698,0.077 0.3508,0.1204 0.5206,0.1979 0.1202,0.054 0.227,0.1432 0.3471,0.198 0.3397,0.1549 0.7015,0.2407 1.0411,0.3955 0.2402,0.1098 0.4627,0.2638 0.6941,0.3957 0.1157,0.067 0.2436,0.1096 0.3471,0.1978 0.1309,0.112 0.1952,0.3265 0.3471,0.3958 0.1611,0.073 0.3593,-0.073 0.5205,0 0.025,0.011 0.6357,0.7413 0.6941,0.7914 0.1035,0.089 0.2437,0.1096 0.3471,0.1978 0.2617,0.2238 0.4386,0.5583 0.694,0.7913 0.1628,0.1487 0.3578,0.2473 0.5207,0.3957 0.8586,0.7832 -0.2079,-0.038 0.694,0.9893 0.1476,0.1681 0.3904,0.21 0.5208,0.3956 0.1141,0.1629 0.1055,0.3999 0.1734,0.5937 0.048,0.1367 0.1017,0.273 0.1734,0.3955 0.046,0.077 0.1245,0.1232 0.1736,0.198 0.125,0.1902 0.2218,0.4033 0.347,0.5935 0.1985,0.3017 0.2422,0.1151 0.3471,0.5935 0.028,0.1279 -0.028,0.2678 0,0.3956 0.2832,1.2917 0.093,-0.7474 0.3471,0.9893 0.028,0.1951 0,0.3956 0,0.5934 0,0.1979 0,0.3958 0,0.5936 0,0.1978 -0.024,0.3978 0,0.5935 0.034,0.2692 0.1343,0.5231 0.1736,0.7914 0.019,0.1302 -0.019,0.2656 0,0.3957 0.039,0.2683 0.1343,0.5232 0.1734,0.7914 0.019,0.1301 0,0.2637 0,0.3956 0,0.1979 0,0.3957 0,0.5936 0,0.3957 0,0.7914 0,1.187 0,0.1524 0.029,0.9239 0,0.9892 -0.01,0.018 -0.6642,0.7489 -0.6941,0.7914 -0.1303,0.1858 -0.2219,0.4034 -0.3471,0.5936 -0.049,0.074 -0.1369,0.1144 -0.1736,0.1978 -0.026,0.058 0.032,0.1429 0,0.1978 -0.09,0.1552 -0.2313,0.2638 -0.347,0.3957 -0.289,0.3298 -0.5782,0.6596 -0.8676,0.9892 -0.1156,0.132 -0.2488,0.2465 -0.347,0.3958 -0.1552,0.2358 -0.1641,0.5828 -0.347,0.7914 -0.041,0.047 -0.1327,-0.047 -0.1736,0 -0.1829,0.2084 -0.1918,0.5553 -0.3471,0.7913 -0.2453,0.373 -0.6058,0.6311 -0.8675,0.9892 -0.1335,0.1827 -0.2168,0.4078 -0.3471,0.5935 -0.1022,0.1457 -0.2109,0.2922 -0.3471,0.3957 -0.1983,0.1506 -0.2132,-0.2598 -0.347,0.1977 -0.037,0.1253 0.069,0.2904 0,0.3959 -0.1251,0.1902 -0.3577,0.2471 -0.5206,0.3956 -0.1277,0.1166 -0.2489,0.2465 -0.3471,0.3957 -0.078,0.118 -0.1017,0.273 -0.1735,0.3956 -0.046,0.077 -0.137,0.1145 -0.1735,0.198 -0.026,0.058 0.026,0.1388 0,0.1979 -0.093,0.2125 -0.2537,0.3807 -0.347,0.5935 -0.082,0.1864 -0.08,0.4146 -0.1736,0.5934 -0.085,0.16 -0.2313,0.2639 -0.3469,0.3957 -0.058,0.067 -0.137,0.1144 -0.1736,0.1979 -0.082,0.1866 -0.1056,0.3999 -0.1735,0.5935 -0.049,0.1369 -0.1422,0.2525 -0.1736,0.3957 -0.028,0.1279 0.037,0.2705 0,0.3957 -0.026,0.089 -0.1281,0.1203 -0.1735,0.1979 -0.072,0.1226 -0.107,0.2692 -0.1736,0.3956 -0.1073,0.2039 -0.2537,0.3809 -0.347,0.5934 -0.026,0.058 0.018,0.1353 0,0.198 -0.082,0.2798 -0.2653,0.5116 -0.3471,0.7914 -0.055,0.1877 0.034,0.3995 0,0.5934 -0.036,0.2045 -0.1292,0.3912 -0.1735,0.5936 -0.087,0.3957 0.1735,0 0,0.5935 -0.026,0.089 -0.1477,0.1097 -0.1735,0.1979 -0.025,0.086 0,1.3075 0,1.3849 0,0.2093 -0.03,1.283 0,1.3848 0.013,0.045 0.6432,0.7626 0.6941,0.7914 0.051,0.03 0.1217,-0.03 0.1735,0 0.1464,0.083 0.2007,0.3122 0.3471,0.3957 0.5107,0.2912 -0.2285,-0.4583 0.3471,0.1979 0.057,0.067 0.1157,0.132 0.1735,0.1978 0.058,0.067 0.1004,0.1562 0.1736,0.1979 0.1103,0.064 0.7238,-0.054 0.8675,0 0.078,0.03 0.1003,0.1561 0.1735,0.1978 0.052,0.03 0.1157,0 0.1735,0 0.2893,0 0.5785,0 0.8677,0 0.057,0 0.1156,0 0.1735,0 0.058,0 0.1218,0.03 0.1735,0 0.073,-0.042 0.1004,-0.1561 0.1736,-0.1978 0.052,-0.03 0.1218,0.03 0.1735,0 0.033,-0.019 0.6774,-0.7536 0.6941,-0.7914 0.026,-0.058 -0.026,-0.139 0,-0.1979 0.037,-0.083 0.1281,-0.1201 0.1735,-0.1978 0.072,-0.1227 0.1018,-0.273 0.1736,-0.3956 0.046,-0.077 0.1476,-0.1097 0.1734,-0.198 0.037,-0.1249 0,-0.2637 0,-0.3956 0.058,-0.1978 0.1056,-0.3999 0.1735,-0.5936 0.096,-0.2738 0.2511,-0.5175 0.3472,-0.7913 0.068,-0.1936 0.1055,-0.4 0.1734,-0.5937 0.048,-0.1367 0.1422,-0.2525 0.1736,-0.3955 0.028,-0.128 -0.043,-0.2733 0,-0.3957 0.078,-0.2207 0.2696,-0.3728 0.347,-0.5936 0.043,-0.1225 -0.028,-0.2677 0,-0.3957 0.031,-0.143 0.1422,-0.2525 0.1736,-0.3955 0.028,-0.128 -0.037,-0.2706 0,-0.3958 0.026,-0.089 0.1477,-0.1096 0.1736,-0.1979 0.037,-0.1251 -0.037,-0.2706 0,-0.3956 0.026,-0.089 0.1282,-0.1203 0.1736,-0.198 0.072,-0.1225 0.1017,-0.2729 0.1734,-0.3955 0.09,-0.1552 0.2738,-0.2289 0.347,-0.3958 0.026,-0.058 -0.026,-0.1388 0,-0.1977 0.3971,-0.9056 -0.072,0.8394 0.347,-0.5936 0.019,-0.064 -0.041,-0.1512 0,-0.1979 0.091,-0.1039 0.2556,-0.093 0.3471,-0.1978 0.4383,-0.4997 0.067,-0.2281 0.1735,-0.5935 0.041,-0.14 0.1327,-0.2558 0.1736,-0.3957 0.018,-0.064 -0.026,-0.139 0,-0.1979 0.037,-0.083 0.1282,-0.1201 0.1736,-0.1979 0.072,-0.1226 0.082,-0.2913 0.1734,-0.3955 0.041,-0.047 0.1158,0 0.1736,0 0.058,-0.067 0.1281,-0.1204 0.1735,-0.198 0.3823,-0.1 0.091,-0.407 0.1735,-0.5934 0.077,-0.1754 0.4152,-0.4135 0.5205,-0.5936 0.072,-0.1227 0.1157,-0.2637 0.1735,-0.3957 0.058,-0.1318 0.1327,-0.2557 0.1736,-0.3956 0.019,-0.062 -0.041,-0.1512 0,-0.1978 0.041,-0.047 0.1157,0 0.1736,0 0.057,-0.066 0.1281,-0.1204 0.1735,-0.1981 0.072,-0.1225 0.1018,-0.2728 0.1735,-0.3955 0.2646,-0.4528 0.1374,0.1237 0.347,-0.5936 0.019,-0.061 -0.026,-0.1387 0,-0.1978 0.04,-0.092 0.5921,-0.675 0.6942,-0.7914 0.057,-0.067 0.1369,-0.1143 0.1735,-0.1978 0.052,-0.118 -0.082,-0.3024 0,-0.3957 0.041,-0.047 0.1326,0.047 0.1736,0 0.041,-0.047 -0.026,-0.1388 0,-0.1979 0.073,-0.1667 0.2739,-0.2288 0.3469,-0.3955 0.052,-0.1181 -0.052,-0.2779 0,-0.3958 0.037,-0.083 0.1004,-0.1562 0.1736,-0.1978 0.052,-0.03 0.1477,0.058 0.1735,0 0.052,-0.118 -0.037,-0.2706 0,-0.3958 0.026,-0.089 0.1369,-0.1143 0.1735,-0.1977 0.026,-0.058 -0.026,-0.1389 0,-0.1979 0.037,-0.083 0.1157,-0.1319 0.1735,-0.1978 0,-0.132 -0.037,-0.2707 0,-0.3958 0.052,-0.1769 0.2953,-0.2187 0.3471,-0.3957 0.037,-0.1251 -0.037,-0.2705 0,-0.3956 0.026,-0.089 0.1369,-0.1144 0.1735,-0.1979 0.026,-0.058 -0.019,-0.1352 0,-0.1977 0.041,-0.1399 0.1326,-0.2559 0.1736,-0.3959 0.018,-0.062 -0.018,-0.1353 0,-0.1978 0.041,-0.1398 0.1326,-0.2557 0.1735,-0.3957 0.018,-0.064 -0.018,-0.1353 0,-0.1978 0.082,-0.2797 0.2844,-0.5052 0.3471,-0.7914 0.028,-0.1279 -0.028,-0.2676 0,-0.3956 0.031,-0.143 0.1421,-0.2527 0.1735,-0.3957 0.056,-0.2559 -0.073,-0.541 0,-0.7914 0.026,-0.089 0.1477,-0.1097 0.1736,-0.1979 0.037,-0.1251 -0.028,-0.2677 0,-0.3956 0.031,-0.1432 0.1422,-0.2527 0.1734,-0.3957 0.028,-0.128 -0.028,-0.2677 0,-0.3957 0.031,-0.143 0.1523,-0.2503 0.1734,-0.3957 0,-2.0687 -0.1034,0.076 0.1736,-1.1871 0.028,-0.1278 -0.052,-0.2777 0,-0.3956 0.073,-0.1669 0.2739,-0.2289 0.3471,-0.3958 0.1035,-0.2358 -0.086,-0.5463 0,-0.7912 0.078,-0.2208 0.2219,-0.4034 0.3471,-0.5936 0.05,-0.074 0.1476,-0.1098 0.1735,-0.1979 0.3971,-1.3581 -0.6645,0.9216 0.1735,-0.9891 0.058,-0.1332 0.4774,-0.7425 0.5206,-0.9893 0.034,-0.194 -0.064,-0.4098 0,-0.5935 0.061,-0.1732 0.2739,-0.2287 0.3471,-0.3957 0.052,-0.118 -0.028,-0.2678 0,-0.3958 0.031,-0.143 0.1156,-0.2637 0.1735,-0.3955 0.058,-0.132 0.1157,-0.2638 0.1735,-0.3958 0.1158,-0.2637 0.2036,-0.5459 0.3471,-0.7913 0.046,-0.077 0.1156,-0.1319 0.1734,-0.1979 0.058,-0.066 0.1004,-0.156 0.1736,-0.1978 0.051,-0.03 0.1327,0.047 0.1736,0 0.359,-0.4094 -0.5487,0.016 0.1734,-0.3957 0.052,-0.03 0.1327,0.047 0.1736,0 0.041,-0.047 -0.026,-0.1389 0,-0.1978 0.037,-0.083 0.1157,-0.1318 0.1735,-0.1979 0.057,-0.067 0.1004,-0.1561 0.1735,-0.1978 0.052,-0.03 0.1157,0 0.1735,0 0.1158,0 0.2314,0 0.3472,0 0.4048,0 0.8097,0 1.2145,0 0.058,0 0.1157,0 0.1735,0 0.058,0 0.1477,-0.058 0.1736,0 0.052,0.1179 -0.052,0.2777 0,0.3957 0.026,0.058 0.1218,-0.03 0.1736,0 0.1463,0.083 0.2108,0.2923 0.347,0.3957 0.1077,0.082 0.2557,0.093 0.3471,0.1978 0.041,0.047 -0.026,0.1389 0,0.1978 0.037,0.083 0.137,0.1145 0.1735,0.1979 0.026,0.058 -0.026,0.1388 0,0.1978 0.037,0.083 0.1157,0.1319 0.1736,0.1978 0.058,0.067 0.1157,0.132 0.1735,0.198 0.5754,0.656 -0.082,-0.1867 0.1735,0.3956 0.073,0.1668 0.2739,0.2288 0.347,0.3957 0.026,0.058 -0.019,0.1353 0,0.1977 0.419,1.4332 -0.051,-0.3118 0.347,0.5936 0.026,0.058 -0.026,0.1389 0,0.1979 0.3611,0.8233 -0.012,-0.2114 0.3471,0.1979 0.041,0.047 -0.041,0.1512 0,0.1979 0.041,0.047 0.1327,-0.047 0.1736,0 0.041,0.047 -0.026,0.1387 0,0.1977 0.037,0.083 0.1369,0.1144 0.1735,0.1978 0.026,0.058 -0.041,0.1513 0,0.198 0.041,0.047 0.1326,-0.047 0.1735,0 0.041,0.047 -0.041,0.1511 0,0.1977 0.086,0.099 0.4338,-0.099 0.5206,0 0.041,0.047 -0.041,0.1512 0,0.1979 0.041,0.047 0.1217,-0.03 0.1735,0 0.073,0.042 0.1157,0.132 0.1736,0.1979 0.1156,0 0.2373,-0.043 0.347,0 0.078,0.03 0.1004,0.1561 0.1735,0.1979 0.053,0.03 0.4425,0 0.5206,0 0.347,0 0.6941,0 1.0411,0 0.058,0 0.1158,0 0.1736,0 0.057,0 0.1327,0.047 0.1736,0 0.041,-0.047 -0.041,-0.1513 0,-0.1979 0.041,-0.047 0.1325,0.047 0.1734,0 0.041,-0.047 0,-0.1319 0,-0.1979 0,-0.1319 -0.052,-0.2777 0,-0.3956 0.026,-0.058 0.1327,0.047 0.1736,0 0.041,-0.047 0,-0.132 0,-0.198 0,-0.5934 0,-1.187 0,-1.7805 0,-0.7254 0,-1.4509 0,-2.1763 0,-1.0552 0,-2.1104 0,-3.1655 0,-0.067 0,0.132 0,0.1979 0,0.047 -0.019,0.747 0,0.7913 0.2145,0.489 0.1736,-0.069 0.1736,0.3957 0,0.132 0,0.2638 0,0.3958 0,0.1318 -0.028,0.2676 0,0.3955 0.031,0.1431 0.1422,0.2527 0.1734,0.3958 0.056,0.2558 -0.046,0.5328 0,0.7914 0.2101,1.1977 0.1735,0.082 0.1735,0.9891 0,0.132 0,0.2639 0,0.3957 0,0.132 -0.037,0.2707 0,0.3958 0.026,0.089 0.1476,0.1096 0.1735,0.1978 0.073,0.2502 -0.056,0.5354 0,0.7913 0.031,0.1432 0.1482,0.2512 0.1736,0.3958 0.034,0.1939 -0.042,0.4016 0,0.5934 0.019,0.091 0.1476,0.1097 0.1734,0.198 0.053,0.178 -0.052,0.4154 0,0.5935 0.4917,1.1208 -0.065,-0.295 0.1736,0.7913 0.031,0.143 0.1482,0.2511 0.1736,0.3957 0.034,0.1939 0,0.3957 0,0.5936 0,0.067 -0.018,0.1351 0,0.1978 0.041,0.14 0.1421,0.2525 0.1734,0.3956 0.028,0.1279 -0.022,0.2664 0,0.3957 0.6292,2.1517 -0.091,-0.5214 0.1736,0.9892 0.2101,1.1978 0.1736,0.082 0.1736,0.9893 0,0.1978 0,0.3957 0,0.5935 0,0.1978 -0.055,0.4058 0,0.5935 0.066,0.2255 0.2811,0.3679 0.347,0.5935 0.054,0.1879 -0.021,0.3974 0,0.5936 0.037,0.3336 0.137,0.6555 0.1736,0.9892 0.021,0.1963 -0.048,0.4033 0,0.5935 0.071,0.2836 0.2759,0.5078 0.3469,0.7913 0.048,0.1902 -0.048,0.4034 0,0.5936 0.8119,1.8514 0.087,-0.096 0.3471,1.385 0.025,0.1445 0.1017,0.2729 0.1735,0.3957 0.046,0.077 0.1575,0.1063 0.1735,0.1977 0.046,0.2587 -0.046,0.5327 0,0.7913 0.016,0.092 0.1538,0.1075 0.1736,0.1981 0.042,0.1918 -0.028,0.3983 0,0.5934 0.4138,1.4153 0,-0.2166 0.1735,1.1871 0.1637,1.3058 0.1457,0.3003 0.5207,1.5828 0.093,0.319 0.096,0.6647 0.1734,0.9891 0.096,0.4024 0.2583,0.7825 0.3471,1.187 0.01,0.032 0.3423,2.3582 0.347,2.3742 0.066,0.2256 0.2812,0.3681 0.3471,0.5936 0.054,0.1876 -0.028,0.3983 0,0.5935 0.03,0.2057 0.1292,0.3911 0.1735,0.5935 0.042,0.1918 -0.042,0.4016 0,0.5935 0.031,0.143 0.1422,0.2526 0.1735,0.3958 0.028,0.1279 0,0.2637 0,0.3955 0,0.3297 0,0.6596 0,0.9893 0,0.1319 -0.028,0.2677 0,0.3957 0.031,0.143 0.1422,0.2525 0.1736,0.3955 0.028,0.128 -0.022,0.2666 0,0.3959 0.036,0.2045 0.1377,0.389 0.1735,0.5935 0.022,0.1292 -0.022,0.2663 0,0.3956 0.036,0.2045 0.1375,0.3891 0.1734,0.5936 0.049,0.2748 -0.072,0.7419 0,0.9892 0.066,0.2256 0.2697,0.3727 0.3471,0.5935 0.036,0.1029 0,0.9621 0,1.1871 0.6623,0.4846 1.1837,1.1516 1.7352,1.7806 0.058,0.067 0.1158,0.1319 0.1736,0.1978 0.058,0.067 0.1476,0.1096 0.1735,0.1978 0.037,0.1253 -0.059,0.2827 0,0.3958 0.1263,0.2398 0.3845,0.3607 0.5207,0.5934 0.2029,0.347 0.1834,0.8141 0.347,1.1871 0.037,0.083 0.1282,0.1204 0.1736,0.1979 0.072,0.1227 0.1017,0.273 0.1735,0.3955 0.046,0.077 0.137,0.1145 0.1735,0.198 0.026,0.058 -0.018,0.1353 0,0.1978 0.041,0.14 0.1326,0.2559 0.1735,0.3957 0.018,0.062 -0.018,0.1353 0,0.1979 0.041,0.1399 0.1422,0.2526 0.1736,0.3956 0.021,0.096 -0.046,0.6868 0,0.7913 0.037,0.083 0.1369,0.1146 0.1734,0.198 0.037,0.085 0,0.911 0,0.9892 0,0.3956 0,0.7914 0,1.187 0,0.1319 0.028,0.2678 0,0.3957 -0.031,0.1431 -0.1481,0.2511 -0.1734,0.3957 -0.034,0.194 0,0.3958 0,0.5936 0,0.1318 0.052,0.2777 0,0.3956 -0.073,0.1668 -0.2314,0.2637 -0.3471,0.3957 -0.057,0.067 -0.1431,0.1113 -0.1735,0.1978 -0.2224,0.634 -0.094,0.8094 -0.3471,1.3849 -0.093,0.2127 -0.2436,0.3871 -0.347,0.5937 -0.3564,0.7107 -0.2715,0.7822 -0.6942,1.3848 -0.1022,0.1455 -0.274,0.2289 -0.347,0.3957 -0.1065,0.2431 -0.055,0.5553 -0.1734,0.7914 -0.2893,0.5769 -0.5785,0.4945 -0.8678,0.9891 -0.1435,0.2454 -0.1787,0.5675 -0.347,0.7914 -0.1882,0.2503 -0.478,0.3745 -0.6941,0.5936 -0.3057,0.3098 -0.5619,0.6794 -0.8676,0.9892 -0.2162,0.219 -0.478,0.3744 -0.6942,0.5935 -0.3055,0.3098 -0.5783,0.6595 -0.8676,0.9892 -0.2313,0.2638 -0.4627,0.5276 -0.6941,0.7915 -0.1735,0.1977 -0.3635,0.3785 -0.5205,0.5935 -0.4776,0.6534 -0.2698,0.6107 -0.6941,1.3848 -0.1533,0.2797 -0.3913,0.4965 -0.5206,0.7914 -0.052,0.1179 0.037,0.2705 0,0.3956 0.4062,0.7434 -0.414,0.6245 -0.5206,0.9893 -0.055,0.1877 0,0.3956 0,0.5935 0,0.3297 0,0.6595 0,0.9892 0,0.4616 0,0.9233 0,1.3849 0,0.1319 0,0.2638 0,0.3957 0,0.1319 -0.037,0.2706 0,0.3957 0.077,0.2624 0.6787,0.4499 0.8676,0.5935 0.068,0.052 0.1055,0.1462 0.1736,0.1979 0.1076,0.082 0.2394,0.116 0.347,0.1979 0.068,0.052 0.096,0.1682 0.1736,0.1977 0.1096,0.042 0.2544,-0.079 0.3469,0 0.1669,0.1427 0.1996,0.4255 0.3471,0.5936 0.091,0.1039 0.2436,0.1096 0.347,0.1978 0.1309,0.1119 0.2162,0.2838 0.3471,0.3958 0.1035,0.089 0.2362,0.1219 0.3471,0.1977 0.1789,0.1224 0.347,0.2638 0.5205,0.3957 0.4192,0.078 0.5596,0.5571 0.8677,0.7914 0.048,0.036 0.1187,-0.021 0.1735,0 0.1227,0.047 0.2269,0.1431 0.3471,0.1978 0.3395,0.155 0.6894,0.2812 1.0411,0.3958 0.1012,0.033 1.0588,0.277 1.2147,0.3955 0.2041,0.1552 0.3101,0.4497 0.5205,0.5936 0.099,0.068 0.2374,-0.042 0.3471,0 0.2454,0.093 0.4564,0.2796 0.6942,0.3958 0.1681,0.082 0.3636,0.091 0.5205,0.1978 0.1403,0.096 0.2314,0.2638 0.347,0.3956 0.2893,0.3297 0.5785,0.6595 0.8677,0.9894 0.1156,0.1318 0.2161,0.2837 0.347,0.3955 0.1691,0.1447 0.4144,0.1538 0.5205,0.3957 0.026,0.058 -0.026,0.1389 0,0.1978 0.037,0.083 0.1158,0.1319 0.1736,0.1979 0.058,0.067 0.1055,0.1462 0.1736,0.1979 0.1076,0.082 0.2556,0.093 0.347,0.1979 0.041,0.047 -0.018,0.1352 0,0.1978 0.041,0.1399 0.1327,0.2558 0.1736,0.3956 0.018,0.062 0,0.1319 0,0.1979 0.058,0.1978 0.091,0.407 0.1736,0.5935 0.037,0.083 0.128,0.1203 0.1733,0.1979 0.072,0.1227 0.107,0.2692 0.1736,0.3956 0.1073,0.204 0.2537,0.3809 0.347,0.5936 0.032,0.073 0,1.2161 0,1.385 0,0.7253 0,1.4507 0,2.176 0,0.132 0,0.2639 0,0.3959 0,0.067 0.032,0.1429 0,0.1978 -0.2054,0.3514 -0.4501,0.6714 -0.6939,0.9891 -0.1617,0.2108 -0.3906,0.3565 -0.5207,0.5936 -0.1651,0.3012 -0.2077,0.6716 -0.3471,0.9892 -0.093,0.2126 -0.2314,0.3958 -0.347,0.5936 -0.2313,0.3956 -0.4872,0.7742 -0.6941,1.1869 -0.1284,0.2563 -0.2188,0.5355 -0.3471,0.7914 -0.1034,0.2066 -0.2313,0.3958 -0.347,0.5936 -0.1156,0.1978 -0.2135,0.4109 -0.347,0.5936 -0.1572,0.215 -0.3471,0.3956 -0.5206,0.5936 -0.2313,0.1977 -0.5037,0.3453 -0.6941,0.5934 -0.2222,0.2894 -0.3336,0.6693 -0.5207,0.9892 -0.1928,0.3298 -0.5568,0.9037 -0.8675,1.1872 -0.1629,0.1484 -0.3471,0.2637 -0.5206,0.3955 -0.1736,0.132 -0.3341,0.2895 -0.5206,0.3957 -0.1637,0.093 -0.3525,0.1158 -0.5207,0.1978 -0.2376,0.1162 -0.4486,0.3025 -0.694,0.3958 -1.047,0.2388 -0.5878,0.092 -1.3881,0.3957 -0.1736,0.067 -0.3525,0.1156 -0.5207,0.1978 -0.2378,0.1162 -0.4416,0.3317 -0.6941,0.3957 -0.2823,0.072 -0.5796,-0.03 -0.8676,0 -2.6764,0.2773 0.4652,0.1497 -1.9088,0.3956 -0.3455,0.036 -0.6949,-0.029 -1.0412,0 -0.4652,0.038 -0.9228,0.1625 -1.3882,0.1979 -0.6348,0.049 -1.2724,0 -1.9087,0 -1.3882,0 -2.7765,0 -4.1647,0 -0.8098,0 -1.6195,0 -2.4293,0 -0.2313,0 -0.4627,0 -0.694,0 -0.2893,0 -0.5808,0.041 -0.8678,0 -0.1815,-0.025 -0.3412,-0.1569 -0.5206,-0.1979 -0.2268,-0.052 -0.467,0.052 -0.694,0 -0.1794,-0.041 -0.3401,-0.1635 -0.5206,-0.1978 -0.1712,-0.032 -0.3504,0.039 -0.5206,0 -0.1268,-0.029 -0.2314,-0.1319 -0.3471,-0.1978 -0.2313,-0.066 -0.458,-0.1594 -0.6941,-0.1979 -0.1716,-0.028 -0.3469,0 -0.5205,0 -0.3471,0 -0.6942,0 -1.0411,0 -0.1157,0 -0.233,0.022 -0.3471,0 -0.2353,-0.044 -0.4581,-0.1593 -0.6942,-0.1978 -0.4007,-0.066 -0.8128,0.057 -1.2145,0 -0.2368,-0.034 -0.4576,-0.1641 -0.6942,-0.1978 -0.2297,-0.033 -0.4628,0 -0.6942,0 -0.2312,0 -0.4626,0 -0.694,0 -0.1736,0 -0.3495,0.032 -0.5206,0 -0.1805,-0.034 -0.3395,-0.1683 -0.5206,-0.1979 -0.2291,-0.037 -0.4641,0.029 -0.6941,0 -0.2932,-0.037 -0.574,-0.1644 -0.8676,-0.1978 -0.2878,-0.033 -0.5785,0 -0.8676,0 -0.5206,0 -1.0412,0 -1.5618,0 -0.2891,0 -0.5806,0.041 -0.8676,0 -0.1815,-0.025 -0.3402,-0.1637 -0.5206,-0.1979 -0.1712,-0.032 -0.3537,0.054 -0.5206,0 -0.2488,-0.081 -0.4416,-0.3317 -0.694,-0.3957 -0.2824,-0.071 -0.5854,0.072 -0.8677,0 -0.2525,-0.065 -0.4432,-0.324 -0.6941,-0.3957 -0.5398,-0.1538 -0.7085,0.1155 -1.2147,0 -0.1268,-0.029 -0.2215,-0.162 -0.347,-0.1978 -0.1123,-0.032 -0.2336,0.025 -0.3471,0 -0.1793,-0.041 -0.347,-0.1318 -0.5206,-0.1977 -0.5615,-0.2135 -1.1466,-0.4978 -1.7352,-0.5938 -0.1718,-0.027 -0.3488,0.028 -0.5206,0 -0.2361,-0.039 -0.464,-0.1261 -0.6941,-0.1977 -0.4063,-0.1263 -0.8061,-0.2792 -1.2146,-0.3957 -0.2861,-0.082 -0.5905,-0.083 -0.8677,-0.1978 -1.158,-0.4801 -0.8108,-0.6478 -1.9088,-0.9893 -0.3393,-0.1049 -0.7016,-0.092 -1.0412,-0.1978 -0.3005,-0.093 -0.5784,-0.2638 -0.8676,-0.3957 -0.8676,-0.3956 -1.7352,-0.7914 -2.6029,-1.187 -0.2891,-0.132 -0.5692,-0.2937 -0.8675,-0.3958 -0.5257,-0.1797 -1.0362,-0.2158 -1.5618,-0.3955 -0.8853,-0.3029 -0.9353,-0.4113 -1.7352,-0.5936 -0.345,-0.079 -0.6951,-0.1261 -1.0413,-0.1979 -1.4938,-0.3096 -0.2356,-0.049 -1.9087,-0.3957 -0.5803,-0.1202 -1.1568,-0.2637 -1.7352,-0.3956 -0.2893,-0.067 -0.5742,-0.1644 -0.8677,-0.1978 -0.2877,-0.033 -0.5841,0.065 -0.8676,0 -1.8245,-0.4162 0,-0.3714 -1.5618,-0.5936 -0.4592,-0.066 -0.9301,0.074 -1.3881,0 -0.1811,-0.03 -0.3395,-0.1683 -0.5206,-0.1979 -0.2291,-0.038 -0.4651,0.037 -0.6942,0 -0.1811,-0.03 -0.347,-0.1319 -0.5205,-0.1978 -0.2892,-0.067 -0.574,-0.1673 -0.8676,-0.1978 -0.3457,-0.035 -0.6956,0.036 -1.0412,0 -0.2937,-0.03 -0.5749,-0.1561 -0.8676,-0.1979 -0.1722,-0.024 -0.3488,0.028 -0.5206,0 -0.2361,-0.039 -0.4575,-0.1641 -0.694,-0.1977 -0.2297,-0.033 -0.4628,0 -0.6942,0 -0.347,0 -0.6953,0.033 -1.0411,0 -0.3507,-0.033 -0.6908,-0.1616 -1.0412,-0.1981 -0.2881,-0.03 -0.5799,0.033 -0.8677,0 -2.9052,-0.3312 1.4425,-0.077 -1.9088,-0.3956 -0.3457,-0.033 -0.694,0 -1.0411,0 -0.6363,0 -1.2724,0 -1.9087,0 -0.3472,0 -0.6957,0.035 -1.0412,0 -2.5442,-0.2637 1.0118,-0.1578 -1.9087,-0.3957 -0.4617,-0.038 -0.9267,0.036 -1.3883,0 -0.4082,-0.031 -0.8097,-0.1318 -1.2147,-0.1978 -0.4049,-0.067 -0.8105,-0.1268 -1.2148,-0.1978 -0.3476,-0.061 -0.6902,-0.167 -1.041,-0.1978 -0.4038,-0.036 -0.8099,0 -1.2147,0 -0.8676,0 -1.7352,0 -2.6029,0 -0.4628,0 -0.9265,0.035 -1.3882,0 -0.4081,-0.031 -0.8067,-0.1646 -1.2148,-0.1979 -0.6921,-0.056 -1.388,0 -2.0822,0 -1.7931,0 -3.5863,0 -5.3793,0 -0.7124,-0.3556 -1.2405,-0.015 -1.9087,-0.3957 -0.073,-0.042 -0.096,-0.1684 -0.1736,-0.1978 -0.1097,-0.042 -0.2336,0.025 -0.3471,0 -0.3587,-0.082 -0.6862,-0.2946 -1.0412,-0.3957 -0.056,-0.016 -0.1186,0.021 -0.1734,0 -0.1227,-0.047 -0.2216,-0.162 -0.3471,-0.1978 -0.1122,-0.032 -0.2348,0.032 -0.347,0 -0.314,0.1191 -0.3227,-0.3205 -0.5205,-0.3957 -0.2196,-0.083 -0.4747,0.083 -0.6942,0 -0.1552,-0.058 -0.2008,-0.3123 -0.3472,-0.3958 -0.051,-0.03 -0.1156,0 -0.1734,0 -0.1158,0 -0.2314,0 -0.3471,0 -0.4047,0 -0.8097,0 -1.2147,0 -0.1132,0 -0.5574,0.039 -0.6941,0 -0.1774,-0.051 -0.3411,-0.157 -0.5205,-0.1978 -0.1957,-0.044 -0.6405,0 -0.8676,0 -0.5207,0 -1.0412,0 -1.5618,0 -0.3471,0 -0.6941,0 -1.041,0 -0.2314,0 -0.4673,-0.052 -0.6942,0 -0.1794,0.041 -0.3508,0.1204 -0.5206,0.1978 -0.1201,0.054 -0.2202,0.169 -0.3472,0.1979 -0.3402,0.077 -0.7073,-0.1086 -1.041,0 -0.885,0.2883 -0.4294,0.4444 -1.2148,0.5936 -0.171,0.032 -0.3536,-0.054 -0.5205,0 -0.2488,0.081 -0.443,0.3242 -0.6941,0.3956 -0.2245,0.065 -0.4628,0 -0.6941,0 -0.2892,0 -0.5806,-0.041 -0.8676,0 -0.1815,0.025 -0.3413,0.1569 -0.5206,0.1979 -0.1135,0.025 -0.233,-0.022 -0.347,0 -0.2353,0.044 -0.458,0.1593 -0.6941,0.1978 -0.3436,0.056 -0.7009,-0.077 -1.0412,0 -0.1269,0.029 -0.2216,0.1621 -0.3471,0.1977 -0.1121,0.032 -0.2348,-0.032 -0.347,0 -0.1254,0.036 -0.2215,0.1622 -0.347,0.198 -0.1122,0.032 -0.2436,-0.058 -0.3471,0 -0.1464,0.083 -0.2007,0.3123 -0.347,0.3957 -0.1035,0.058 -0.2374,-0.042 -0.3472,0 -0.078,0.03 -0.1003,0.1561 -0.1734,0.1978 -0.052,0.03 -0.1327,-0.047 -0.1735,0 -0.082,0.093 0.082,0.3025 0,0.3957 -0.041,0.047 -0.1327,-0.047 -0.1736,0 -0.082,0.093 0.052,0.2776 0,0.3956 -0.1328,0.3031 -0.3092,0.1548 -0.5206,0.3959 -0.041,0.047 0.026,0.1388 0,0.1977 -0.037,0.083 -0.1369,0.1144 -0.1736,0.1979 -0.026,0.058 0.058,0.1978 0,0.1978 -0.1637,0 0.3278,-0.9233 0,0.1978 -0.026,0.089 -0.1313,0.1178 -0.1733,0.1979 -0.1332,0.2529 -0.2314,0.5276 -0.3472,0.7914 z"
           style="fill:#ffffff;fill-opacity:1;fill-rule:evenodd;stroke:#ffffff;stroke-width:14;stroke-linecap:butt;stroke-linejoin:miter;stroke-miterlimit:4;stroke-dasharray:none;stroke-opacity:1" />
        <path
           style="fill:#ffffff;fill-opacity:1;fill-rule:evenodd;stroke:#000000;stroke-width:10.0558548;stroke-linecap:butt;stroke-linejoin:miter;stroke-miterlimit:4;stroke-dasharray:none;stroke-opacity:1"
           d="m 1579.2269,948.23341 c -10e-5,-0.0421 228.9394,26.62874 247.4567,140.60809 6.7152,41.3346 -19.4659,206.9554 -21.7467,198.559 l -180.0278,-2.5324 c -0.1078,-0.088 17.01,-17.8117 5.4915,-111.2066 -12.5385,-101.6647 -51.1737,-225.42809 -51.1737,-225.42809 z"
           id="path4201"
           inkscape:connector-curvature="0"
           sodipodi:nodetypes="csccsc" />
        <path
           style="fill:#ffffff;fill-opacity:1;fill-rule:evenodd;stroke:none;stroke-width:1px;stroke-linecap:butt;stroke-linejoin:miter;stroke-opacity:1"
           d="m 1247.1429,1270.9336 c -0.484,11.5969 -2.9553,-101.5977 329.2856,-315.71425 38.5632,101.40125 73.5898,318.01695 45.7144,334.28575 -130.5403,14.7322 -252.2137,-4.0213 -375,-18.5715 z"
           id="path4203"
           inkscape:connector-curvature="0"
           sodipodi:nodetypes="cccc" />
        <path
           sodipodi:nodetypes="cccccccc"
           style="fill:#ffffff;fill-opacity:1;fill-rule:evenodd;stroke:#ffffff;stroke-width:14;stroke-linecap:round;stroke-linejoin:miter;stroke-miterlimit:4;stroke-dasharray:none;stroke-opacity:1"
           d="m 1248.1081,734.40812 111.1777,320.81118 24.2857,-12.1428 17.1428,27.8571 c 10.5582,-30.8387 108.2489,-83.84029 165,-126.42854 l 0,-2.85714 -155.1801,-312.5579 c -57.9265,13.31607 -96.6732,14.41467 -162.4261,105.3181 z"
           id="path4205"
           inkscape:connector-curvature="0" />
        <path
           sodipodi:nodetypes="ccccc"
           style="fill:none;fill-rule:evenodd;stroke:#ffffff;stroke-width:14;stroke-linecap:round;stroke-linejoin:miter;stroke-miterlimit:4;stroke-dasharray:none;stroke-opacity:1"
           d="m 1584.2337,681.61499 c 69.4193,113.34198 138.8386,226.68397 208.2579,340.02601 l 0,0 0,0 0,0"
           id="path4207"
           inkscape:connector-curvature="0" />
        <path
           sodipodi:nodetypes="cc"
           style="fill:none;fill-rule:evenodd;stroke:#ffffff;stroke-width:14;stroke-linecap:round;stroke-linejoin:miter;stroke-miterlimit:4;stroke-dasharray:none;stroke-opacity:1"
           d="M 1302.8571,1163.7908 1226.3973,838.39212"
           id="path4211"
           inkscape:connector-curvature="0" />
        <path
           style="fill:#ffffff;fill-opacity:1;fill-rule:evenodd;stroke:none;stroke-width:1px;stroke-linecap:butt;stroke-linejoin:miter;stroke-opacity:1"
           d="m 1707.8717,926.07432 c 0,0 50.3722,12.99521 51.272,76.84758 -22.5433,-22.98542 -86.3523,-36.41229 -86.3523,-36.41229 13.0807,-12.42883 25.5821,-25.29595 35.0803,-40.43529 z"
           id="path4213"
           inkscape:connector-curvature="0"
           sodipodi:nodetypes="cccc" />
        <path
           inkscape:connector-curvature="0"
           id="path4235"
           d="M 1373.2985,1054.2583 C 1324.7024,936.8822 1293.1378,816.44617 1262.9656,695.75996 l 0,0"
           style="fill:none;fill-rule:evenodd;stroke:#000000;stroke-width:14;stroke-linecap:round;stroke-linejoin:miter;stroke-miterlimit:4;stroke-dasharray:none;stroke-opacity:1"
           sodipodi:nodetypes="ccc" />
        <g
           transform="matrix(1.4871977,-0.13230029,0.12632252,1.4745865,-1016.2496,-261.56276)"
           id="g4241"
           style="fill:#ffffff;fill-opacity:1;stroke-width:26.90865135;stroke-miterlimit:4;stroke-dasharray:none">
          <ellipse
             style="opacity:1;fill:#ffffff;fill-opacity:1;stroke:none;stroke-width:26.90865135;stroke-linecap:round;stroke-miterlimit:4;stroke-dasharray:none;stroke-dashoffset:0;stroke-opacity:1"
             id="path4237"
             cx="1523.3746"
             cy="1238.3483"
             transform="matrix(0.98424076,-0.17683359,0.17683359,0.98424076,0,0)"
             rx="27.075418"
             ry="28.503992" />
        </g>
        <path
           style="fill:#000000;fill-opacity:1;fill-rule:evenodd;stroke:#000000;stroke-width:1px;stroke-linecap:butt;stroke-linejoin:miter;stroke-opacity:1"
           d="m 1306.272,1231.2897 c 53.9068,0.7013 93.2538,51.3637 147.8913,48.3848 19.4375,0.7548 66.8538,-31.0576 70.3063,-52.1967 5.3874,-26.1409 -30.3752,-4.6728 -56.291,-10.5456 29.4451,-11.4325 60.1346,-43.7926 85.6457,-21.3024 10.9782,18.9025 17.8005,44.0648 41.745,52.6532 18.1586,10.2209 48.2941,8.8885 55.9994,-13.708 20.3705,-35.8584 73.3632,-25.7014 94.6209,-60.6839 3.6734,-12.9672 35.9677,-24.491 24.6699,-2.2445 -14.1805,13.5677 -25.5528,37.3039 -9.4232,54.0937 15.952,17.2955 41.1822,24.733 64.2231,22.0238 -5.5921,25.1124 -31.1042,38.9918 -55.2072,40.2096 -32.1556,2.402 -64.3494,-2.2714 -96.3423,-4.8287 -59.3057,-7.1733 -119.6185,-6.5673 -178.5191,3.5692 -49.8084,3.7418 -105.2112,5.1341 -147.2805,-26.2336 -7.717,-15.6995 -26.0363,-20.0304 -42.9114,-18.9481 -19.2734,0.9929 -9.1655,-5.5054 0.8731,-10.2428 z"
           id="path4274"
           inkscape:connector-curvature="0"
           sodipodi:nodetypes="ccccccccccccccccc" />
      </g>
    </g>
  </g>
</svg>
