<?xml version="1.0" encoding="UTF-8" standalone="no"?>
<!-- Created with Inkscape (http://www.inkscape.org/) -->

<svg
   xmlns:dc="http://purl.org/dc/elements/1.1/"
   xmlns:cc="http://creativecommons.org/ns#"
   xmlns:rdf="http://www.w3.org/1999/02/22-rdf-syntax-ns#"
   xmlns:svg="http://www.w3.org/2000/svg"
   xmlns="http://www.w3.org/2000/svg"
   xmlns:sodipodi="http://sodipodi.sourceforge.net/DTD/sodipodi-0.dtd"
   xmlns:inkscape="http://www.inkscape.org/namespaces/inkscape"
   width="848"
   height="745"
   viewBox="0 0 848.00001 745.00001"
   id="svg2"
   version="1.1"
   inkscape:version="0.91 r13725"
   sodipodi:docname="stylized_matchracers_with_3_sailors.svg">
  <defs
     id="defs4" />
  <sodipodi:namedview
     id="base"
     pagecolor="#ffffff"
     bordercolor="#666666"
     borderopacity="1.0"
     inkscape:pageopacity="0.0"
     inkscape:pageshadow="2"
     inkscape:zoom="0.7"
     inkscape:cx="648.78263"
     inkscape:cy="663.54688"
     inkscape:document-units="px"
     inkscape:current-layer="g4281"
     showgrid="false"
     units="px"
     inkscape:window-width="1920"
     inkscape:window-height="1151"
     inkscape:window-x="0"
     inkscape:window-y="1"
     inkscape:window-maximized="1" />
  <metadata
     id="metadata7">
    <rdf:RDF>
      <cc:Work
         rdf:about="">
        <dc:format>image/svg+xml</dc:format>
        <dc:type
           rdf:resource="http://purl.org/dc/dcmitype/StillImage" />
        <dc:title></dc:title>
      </cc:Work>
    </rdf:RDF>
  </metadata>
  <g
     inkscape:label="Layer 1"
     inkscape:groupmode="layer"
     id="layer1"
     transform="translate(0,-307.36216)">
    <g
       id="g4281">
      <path
         style="opacity:1;fill:#333333;fill-opacity:1;stroke:none;stroke-width:10;stroke-linecap:round;stroke-miterlimit:4;stroke-dasharray:none;stroke-dashoffset:0;stroke-opacity:1"
         d="m 0,307.36216 0,580.30105 c 12.392152,0.41944 24.514717,2.68104 31.4375,6.05939 199.42765,70.13988 419.16271,28.34223 376.6543,66.55952 332.97032,47.56658 244.45299,-275.55265 366.97656,10.14845 -4.9586,31.22393 46.4592,-28.64127 44.0918,13.36072 -5.61653,20.73731 -2.55985,47.41191 -10.27344,68.57091 l 39.11328,0 0,-745.00004 -173.68359,0 100.04882,362.94421 -59.13085,12.36091 -19.0879,78.72713 c -51.50442,-19.35238 -279.4423,-8.41105 -431.96484,6.72527 l -2.88281,-2.76314 -13.74024,-457.99438 -247.55859,0 z m 0,618.79368 0,126.20636 693.28906,0 c -4.41064,-1.5632 -8.8739,-2.8842 -13.41601,-3.8392 -20.18134,-5.0055 -43.75187,-10.6457 -64.39063,-4.9228 -62.08257,16.413 -124.48515,-8.814 -180.52344,-30.7676 -44.27242,-6.7281 -90.97372,10.8146 -133.64843,-6.1394 C 196.15433,966.95003 96.77669,949.24671 0,926.15584 Z"
         id="rect4177"
         inkscape:connector-curvature="0" />
      <path
         sodipodi:nodetypes="ccccccccccccccccc"
         inkscape:connector-curvature="0"
         id="path4274"
         d="m 68.308668,750.79676 c 79.778312,13.8022 124.643292,90.51976 206.486342,99.60593 28.63238,5.64373 107.44807,-25.30997 118.20338,-52.57667 14.95859,-33.45146 -43.81313,-13.46161 -80.69138,-27.45317 46.72572,-8.16221 100.87489,-43.83726 132.72403,-7.86005 11.24724,27.7399 14.66131,62.806 47.89159,79.93558 24.2124,17.91756 69.27043,23.34184 86.72275,-4.8462 39.77434,-42.78747 101.97459,-18.00205 142.83156,-59.41376 8.90506,-16.35462 78.29954,28.82049 78.29954,28.82049 0,0 -99.61025,24.37718 -80.15837,50.53949 19.05366,26.79192 78.85706,37.24366 113.75791,39.14452 -14.98813,32.03585 -56.53178,44.38867 -92.61067,40.25236 C 696.603,909.68939 647.39554,915.11895 600.13833,907.52683 514.07618,880.58732 424.44677,828.34345 334.37228,869.64832 259.48938,862.72889 176.93393,851.35163 122.88838,799.62416 115.62515,776.91922 89.604589,766.79031 64.283658,764.1996 35.42892,760.9175 52.154846,754.6954 68.308668,750.79676 Z"
         style="fill:#333333;fill-opacity:1;fill-rule:evenodd;stroke:none;stroke-width:1px;stroke-linecap:butt;stroke-linejoin:miter;stroke-opacity:1" />
      <text
         xml:space="preserve"
         style="font-style:normal;font-weight:normal;font-size:40px;line-height:125%;font-family:sans-serif;letter-spacing:0px;word-spacing:0px;fill:#000000;fill-opacity:1;stroke:none;stroke-width:1px;stroke-linecap:butt;stroke-linejoin:miter;stroke-opacity:1"
         x="267.14288"
         y="368.07645"
         id="text5188"
         sodipodi:linespacing="125%"><tspan
           sodipodi:role="line"
           id="tspan5190"
           x="267.14288"
           y="368.07645">placeholder image </tspan><tspan
           sodipodi:role="line"
           x="267.14288"
           y="418.07645"
           id="tspan5192">for Thursdays</tspan></text>
      <g
         id="g4397"
         transform="matrix(1.4833976,0.23875034,-0.2665146,1.3288641,-1541.2554,-1197.2928)">
        <path
           style="fill:#333333;fill-opacity:1;fill-rule:evenodd;stroke:none;stroke-width:1px;stroke-linecap:butt;stroke-linejoin:miter;stroke-opacity:1"
           d="m 1644.6906,976.26126 c 0,0 50.6516,13.78243 47.55,73.16324 -21.5871,-22.1272 -85.941,-36.7652 -85.941,-36.7652 14.1484,-11.1102 27.7325,-22.64731 38.391,-36.39804 z"
           id="path4213"
           inkscape:connector-curvature="0"
           sodipodi:nodetypes="cccc" />
        <g
           transform="matrix(1.4871977,-0.13230029,0.12632252,1.4745865,-1080.4162,-211.33313)"
           id="g4241"
           style="fill:#333333;fill-opacity:1;stroke-width:26.90865135;stroke-miterlimit:4;stroke-dasharray:none">
          <ellipse
             style="opacity:1;fill:#333333;fill-opacity:1;stroke:none;stroke-width:26.90865135;stroke-linecap:round;stroke-miterlimit:4;stroke-dasharray:none;stroke-dashoffset:0;stroke-opacity:1"
             id="path4237"
             cx="1523.3746"
             cy="1238.3483"
             transform="matrix(0.98424076,-0.17683359,0.17683359,0.98424076,0,0)"
             rx="27.075418"
             ry="28.503992" />
        </g>
        <path
           sodipodi:nodetypes="cccc"
           inkscape:connector-curvature="0"
           id="path4452"
           d="m 1727.056,970.21651 c 0,2e-5 23.1631,59.13609 -21.1216,90.43979 4.6948,-32.1837 -26.5957,-86.16306 -31.5285,-85.2768 17.9891,-0.0842 35.7948,-0.8519 52.6501,-5.16299 z"
           style="fill:#333333;fill-opacity:1;fill-rule:evenodd;stroke:none;stroke-width:1px;stroke-linecap:butt;stroke-linejoin:miter;stroke-opacity:1" />
        <g
           style="fill:#333333;fill-opacity:1;stroke-width:26.90865135;stroke-miterlimit:4;stroke-dasharray:none"
           id="g4454"
           transform="matrix(1.4871977,-0.13230029,0.12632252,1.4745865,-996.52456,-245.27429)">
          <ellipse
             ry="28.503992"
             rx="27.075418"
             transform="matrix(0.98424076,-0.17683359,0.17683359,0.98424076,0,0)"
             cy="1238.3483"
             cx="1523.3746"
             id="ellipse4456"
             style="opacity:1;fill:#333333;fill-opacity:1;stroke:none;stroke-width:26.90865135;stroke-linecap:round;stroke-miterlimit:4;stroke-dasharray:none;stroke-dashoffset:0;stroke-opacity:1" />
        </g>
        <path
           style="fill:#333333;fill-opacity:1;fill-rule:evenodd;stroke:none;stroke-width:1px;stroke-linecap:butt;stroke-linejoin:miter;stroke-opacity:1"
           d="m 1569.9763,1050.0398 c 0,0 23.1631,59.1361 -21.1216,90.4398 4.6948,-32.1837 -26.5957,-86.1631 -31.5285,-85.2768 17.9891,-0.084 35.7948,-0.8519 52.6501,-5.163 z"
           id="path4391"
           inkscape:connector-curvature="0"
           sodipodi:nodetypes="cccc" />
        <g
           transform="matrix(1.4871977,-0.13230029,0.12632252,1.4745865,-1153.6043,-165.45103)"
           id="g4393"
           style="fill:#333333;fill-opacity:1;stroke-width:26.90865135;stroke-miterlimit:4;stroke-dasharray:none">
          <ellipse
             style="opacity:1;fill:#333333;fill-opacity:1;stroke:none;stroke-width:26.90865135;stroke-linecap:round;stroke-miterlimit:4;stroke-dasharray:none;stroke-dashoffset:0;stroke-opacity:1"
             id="ellipse4395"
             cx="1523.3746"
             cy="1238.3483"
             transform="matrix(0.98424076,-0.17683359,0.17683359,0.98424076,0,0)"
             rx="27.075418"
             ry="28.503992" />
        </g>
      </g>
      <path
         sodipodi:nodetypes="csccsc"
         inkscape:connector-curvature="0"
         id="path4341"
         d="m 213.97558,459.54063 c 0.003,-0.0186 89.61263,29.98595 88.82875,81.89683 -0.28433,18.82543 -22.64692,90.0351 -22.95568,86.13815 l -71.78948,-15.43392 c -0.0368,-0.0475 8.07958,-6.52971 10.18294,-48.77503 2.28957,-45.98599 -4.26653,-103.82603 -4.26653,-103.82603 z"
         style="fill:#ffffff;fill-opacity:1;fill-rule:evenodd;stroke:none;stroke-width:10.0558548;stroke-linecap:butt;stroke-linejoin:miter;stroke-miterlimit:4;stroke-dasharray:none;stroke-opacity:1" />
      <path
         sodipodi:nodetypes="cccc"
         inkscape:connector-curvature="0"
         id="path4343"
         d="m 51.507483,575.23177 c -1.05383,5.16314 6.27907,-45.81297 158.434707,-115.08486 8.35044,48.59464 6.75313,148.58726 -5.88786,153.63854 -54.66582,-3.91222 -103.22295,-22.13086 -152.546847,-38.55368 z"
         style="fill:#ffffff;fill-opacity:1;fill-rule:evenodd;stroke:none;stroke-width:1px;stroke-linecap:butt;stroke-linejoin:miter;stroke-opacity:1" />
      <path
         inkscape:connector-curvature="0"
         id="path4345"
         d="m 55.724093,351.5628 24.94461,135.9417 14.68756,-3.48972 14.318127,23.54597 c 8.93373,-12.98269 60.84713,-38.55311 96.58611,-53.08357 l 0.28489,-1.28166 -56.73888,-155.96961 c -34.13015,0.58633 -54.941927,11.85193 -94.082417,54.33689 z"
         style="fill:#ffffff;fill-opacity:1;fill-rule:evenodd;stroke:none;stroke-width:14;stroke-linecap:round;stroke-linejoin:miter;stroke-miterlimit:4;stroke-dasharray:none;stroke-opacity:1"
         sodipodi:nodetypes="cccccccc" />
      <path
         sodipodi:nodetypes="cccc"
         inkscape:connector-curvature="0"
         id="path4347"
         d="m 266.44906,457.72685 c 0,0 19.77328,10.26476 14.12137,36.65188 -7.22857,-11.66561 -32.56278,-23.41852 -32.56278,-23.41852 6.6264,-3.84352 13.0527,-7.92407 18.44141,-13.23336 z"
         style="fill:#ffffff;fill-opacity:1;fill-rule:evenodd;stroke:none;stroke-width:1px;stroke-linecap:butt;stroke-linejoin:miter;stroke-opacity:1" />
      <path
         sodipodi:nodetypes="ccsccc"
         inkscape:connector-curvature="0"
         id="path4349"
         d="m 69.729173,332.70905 c 7.81485,58.45054 16.23048,116.9892 31.895847,174.92694 0.45856,1.7779 2.10482,2.78145 3.65977,2.23099 1.55492,-0.5505 2.41834,-2.44251 1.91938,-4.20612 C 91.737443,448.45768 83.360773,390.43685 75.572403,332.21121 c -3.05681,-5.33535 -6.40245,-3.57812 -5.84323,0.49784 z"
         style="color:#000000;font-style:normal;font-variant:normal;font-weight:normal;font-stretch:normal;font-size:medium;line-height:normal;font-family:sans-serif;text-indent:0;text-align:start;text-decoration:none;text-decoration-line:none;text-decoration-style:solid;text-decoration-color:#000000;letter-spacing:normal;word-spacing:normal;text-transform:none;direction:ltr;block-progression:tb;writing-mode:lr-tb;baseline-shift:baseline;text-anchor:start;white-space:normal;clip-rule:nonzero;display:inline;overflow:visible;visibility:visible;opacity:1;isolation:auto;mix-blend-mode:normal;color-interpolation:sRGB;color-interpolation-filters:linearRGB;solid-color:#000000;solid-opacity:1;fill:#333333;fill-opacity:1;fill-rule:evenodd;stroke:none;stroke-width:14;stroke-linecap:round;stroke-linejoin:miter;stroke-miterlimit:4;stroke-dasharray:none;stroke-dashoffset:0;stroke-opacity:1;color-rendering:auto;image-rendering:auto;shape-rendering:auto;text-rendering:auto;enable-background:accumulate" />
      <g
         style="fill:#ffffff;fill-opacity:1;stroke-width:26.90865135;stroke-miterlimit:4;stroke-dasharray:none"
         id="g4351"
         transform="matrix(0.62016697,0.06051225,-0.0568912,0.67165229,-764.47767,-294.63342)">
        <ellipse
           ry="28.503992"
           rx="27.075418"
           transform="matrix(0.98424076,-0.17683359,0.17683359,0.98424076,0,0)"
           cy="1238.3483"
           cx="1523.3746"
           id="ellipse4353"
           style="opacity:1;fill:#ffffff;fill-opacity:1;stroke:none;stroke-width:26.90865135;stroke-linecap:round;stroke-miterlimit:4;stroke-dasharray:none;stroke-dashoffset:0;stroke-opacity:1" />
      </g>
      <path
         sodipodi:nodetypes="ccccccccccccccccc"
         inkscape:connector-curvature="0"
         id="path4355"
         d="m 78.700093,562.21374 c 22.073987,4.65917 34.487757,30.5565 57.133027,33.62369 7.92234,1.90514 29.72998,-8.54381 32.70588,-17.74816 4.13892,-11.29211 -12.12271,-4.54419 -22.32663,-9.26729 12.92861,-2.75529 27.91124,-14.79802 36.72361,-2.65329 3.11204,9.36408 4.05666,21.20124 13.25121,26.98363 6.69936,6.04838 19.16656,7.87944 23.99547,-1.63592 11.00521,-14.44365 28.21551,-6.0769 39.52027,-20.05614 2.46397,-5.52078 21.66484,9.72886 21.66484,9.72886 0,0 -27.56133,8.22893 -22.17915,17.06047 5.27199,9.04407 21.81909,12.57224 31.47586,13.21391 -4.14709,10.81425 -15.64188,14.98416 -25.62461,13.58787 -12.49603,-9.20069 -26.11133,-7.36785 -39.187,-9.9307 -23.81266,-9.09389 -48.61236,-26.72971 -73.53522,-12.78654 -20.71946,-2.33578 -43.56188,-6.17637 -58.515807,-23.63786 -2.0097,-7.66445 -9.20935,-11.08363 -16.21543,-11.95817 -7.98388,-1.10793 -3.35596,-3.20831 1.11368,-4.52436 z"
         style="fill:#333333;fill-opacity:1;fill-rule:evenodd;stroke:none;stroke-width:1px;stroke-linecap:butt;stroke-linejoin:miter;stroke-opacity:1" />
      <path
         style="fill:#ffffff;fill-opacity:1;fill-rule:evenodd;stroke:none;stroke-width:1px;stroke-linecap:butt;stroke-linejoin:miter;stroke-opacity:1"
         d="m 300.70117,461.65347 c 0,10e-6 5.14631,28.39415 -15.33847,38.8673 4.30026,-14.05864 -4.56217,-40.79458 -6.65216,-40.79458 7.38972,1.41205 14.75457,2.50271 21.99063,1.92728 z"
         id="path4357"
         inkscape:connector-curvature="0"
         sodipodi:nodetypes="cccc" />
      <g
         transform="matrix(0.62016697,0.06051225,-0.0568912,0.67165229,-727.54203,-303.09758)"
         id="g4359"
         style="fill:#ffffff;fill-opacity:1;stroke-width:26.90865135;stroke-miterlimit:4;stroke-dasharray:none">
        <ellipse
           style="opacity:1;fill:#ffffff;fill-opacity:1;stroke:none;stroke-width:26.90865135;stroke-linecap:round;stroke-miterlimit:4;stroke-dasharray:none;stroke-dashoffset:0;stroke-opacity:1"
           id="ellipse4361"
           cx="1523.3746"
           cy="1238.3483"
           transform="matrix(0.98424076,-0.17683359,0.17683359,0.98424076,0,0)"
           rx="27.075418"
           ry="28.503992" />
      </g>
    </g>
  </g>
</svg>
