<?xml version="1.0" encoding="UTF-8" standalone="no"?>
<!-- Created with Inkscape (http://www.inkscape.org/) -->

<svg
   xmlns:dc="http://purl.org/dc/elements/1.1/"
   xmlns:cc="http://creativecommons.org/ns#"
   xmlns:rdf="http://www.w3.org/1999/02/22-rdf-syntax-ns#"
   xmlns:svg="http://www.w3.org/2000/svg"
   xmlns="http://www.w3.org/2000/svg"
   xmlns:sodipodi="http://sodipodi.sourceforge.net/DTD/sodipodi-0.dtd"
   xmlns:inkscape="http://www.inkscape.org/namespaces/inkscape"
   width="900"
   height="900"
   viewBox="0 0 900.00001 900.00001"
   id="svg2"
   version="1.1"
   inkscape:version="0.91 r13725"
   sodipodi:docname="stylized_large_keelboats_with_8_sailors_and_spinakers.svg">
  <defs
     id="defs4" />
  <sodipodi:namedview
     id="base"
     pagecolor="#ffffff"
     bordercolor="#666666"
     borderopacity="1.0"
     inkscape:pageopacity="0.0"
     inkscape:pageshadow="2"
     inkscape:zoom="0.7"
     inkscape:cx="-246.93165"
     inkscape:cy="434.97545"
     inkscape:document-units="px"
     inkscape:current-layer="g4281"
     showgrid="false"
     units="px"
     inkscape:window-width="1920"
     inkscape:window-height="1151"
     inkscape:window-x="0"
     inkscape:window-y="1"
     inkscape:window-maximized="1" />
  <metadata
     id="metadata7">
    <rdf:RDF>
      <cc:Work
         rdf:about="">
        <dc:format>image/svg+xml</dc:format>
        <dc:type
           rdf:resource="http://purl.org/dc/dcmitype/StillImage" />
        <dc:title />
      </cc:Work>
    </rdf:RDF>
  </metadata>
  <g
     inkscape:label="Layer 1"
     inkscape:groupmode="layer"
     id="layer1"
     transform="translate(0,-152.36216)">
    <g
       id="g4281">
      <rect
         y="195.36217"
         x="27.5"
         height="745.14288"
         width="848"
         id="rect4177"
         style="opacity:1;fill:#333333;fill-opacity:1;stroke:none;stroke-width:10;stroke-linecap:round;stroke-miterlimit:4;stroke-dasharray:none;stroke-dashoffset:0;stroke-opacity:1" />
      <path
         sodipodi:nodetypes="cccccccccccc"
         inkscape:connector-curvature="0"
         id="path4265"
         d="M 642.98199,931.74104 C 580.89942,948.15724 518.4976,922.92621 462.45931,900.96837 418.18689,894.23896 371.48549,911.78408 328.81078,894.82678 210.86941,850.24304 100.18697,833.40956 -7.6969072,805.57697 -35.439419,771.52974 37.251915,771.25081 58.93715,781.83534 c 199.42765,70.1533 419.1621,28.34772 376.65369,66.57233 332.97032,47.57571 244.45471,-275.6053 366.97828,10.15048 -4.9586,31.22989 46.45787,-28.647 44.09047,13.36303 -8.49187,31.35959 2.86421,76.30309 -33.19774,95.21204 -38.97363,7.68286 -70.05853,-22.8924 -106.08888,-30.46909 -20.18134,-5.00647 -43.75259,-10.64757 -64.39135,-4.92356 z"
         style="fill:#ffffff;fill-opacity:1;fill-rule:evenodd;stroke:none;stroke-width:14;stroke-linecap:butt;stroke-linejoin:miter;stroke-miterlimit:4;stroke-dasharray:none;stroke-opacity:1" />
      <path
         inkscape:connector-curvature="0"
         id="path4205"
         d="m 699.31494,186.28682 102.55034,372.08875 -59.13105,12.36361 -19.08867,78.74245 c -51.50442,-19.35608 -279.44107,-8.41284 -431.96361,6.72638 l -2.88376,-2.76444 -14.01144,-467.11168 c 126.64224,-47.34726 219.47237,-49.22349 424.52819,-0.0451 z"
         style="fill:#ffffff;fill-opacity:1;fill-rule:evenodd;stroke:none;stroke-width:14;stroke-linecap:round;stroke-linejoin:miter;stroke-miterlimit:4;stroke-dasharray:none;stroke-opacity:1"
         sodipodi:nodetypes="cccccccc" />
      <path
         sodipodi:nodetypes="ccccccccccccccccc"
         inkscape:connector-curvature="0"
         id="path4274"
         d="m 68.308668,750.79676 c 79.778312,13.8022 124.643292,90.51976 206.486342,99.60593 28.63238,5.64373 107.44807,-25.30997 118.20338,-52.57667 14.95859,-33.45146 -43.81313,-13.46161 -80.69138,-27.45317 46.72572,-8.16221 100.87489,-43.83726 132.72403,-7.86005 11.24724,27.7399 14.66131,62.806 47.89159,79.93558 24.2124,17.91756 69.27043,23.34184 86.72275,-4.8462 39.77434,-42.78747 101.97459,-18.00205 142.83156,-59.41376 8.90506,-16.35462 78.29954,28.82049 78.29954,28.82049 0,0 -99.61025,24.37718 -80.15837,50.53949 19.05366,26.79192 78.85706,37.24366 113.75791,39.14452 -14.98813,32.03585 -56.53178,44.38867 -92.61067,40.25236 C 696.603,909.68939 647.39554,915.11895 600.13833,907.52683 514.07618,880.58732 424.44677,828.34345 334.37228,869.64832 259.48938,862.72889 176.93393,851.35163 122.88838,799.62416 115.62515,776.91922 89.604589,766.79031 64.283658,764.1996 35.42892,760.9175 52.154846,754.6954 68.308668,750.79676 Z"
         style="fill:#333333;fill-opacity:1;fill-rule:evenodd;stroke:none;stroke-width:1px;stroke-linecap:butt;stroke-linejoin:miter;stroke-opacity:1" />
      <text
         xml:space="preserve"
         style="font-style:normal;font-weight:normal;font-size:40px;line-height:125%;font-family:sans-serif;letter-spacing:0px;word-spacing:0px;fill:#000000;fill-opacity:1;stroke:none;stroke-width:1px;stroke-linecap:butt;stroke-linejoin:miter;stroke-opacity:1"
         x="318.57144"
         y="313.79074"
         id="text5188"
         sodipodi:linespacing="125%"><tspan
           sodipodi:role="line"
           id="tspan5190"
           x="318.57144"
           y="313.79074">placeholder image </tspan><tspan
           sodipodi:role="line"
           x="318.57144"
           y="363.79074"
           id="tspan5192">for Wednesdays</tspan></text>
      <path
         style="fill:#ffffff;fill-opacity:1;fill-rule:evenodd;stroke:none;stroke-width:1px;stroke-linecap:butt;stroke-linejoin:miter;stroke-opacity:1"
         d="m 275.71428,498.07645 c -158.77531,-35.08786 -171.86409,10.20306 -228.571423,31.42857 0,0 -8.571428,-352.85715 78.571433,-368.57143 87.14285,-15.71429 147.14285,0 147.14285,0 -2.13593,112.38095 -12.49496,224.7619 2.85714,337.14286 z"
         id="path5194"
         inkscape:connector-curvature="0"
         sodipodi:nodetypes="ccscc" />
      <g
         id="g4397"
         transform="matrix(1.4833976,0.23875034,-0.2665146,1.3288641,-1541.2554,-1197.2928)">
        <path
           style="fill:#333333;fill-opacity:1;fill-rule:evenodd;stroke:none;stroke-width:1px;stroke-linecap:butt;stroke-linejoin:miter;stroke-opacity:1"
           d="m 1644.6906,976.26126 c 0,0 50.6516,13.78243 47.55,73.16324 -21.5871,-22.1272 -85.941,-36.7652 -85.941,-36.7652 14.1484,-11.1102 27.7325,-22.64731 38.391,-36.39804 z"
           id="path4213"
           inkscape:connector-curvature="0"
           sodipodi:nodetypes="cccc" />
        <g
           transform="matrix(1.4871977,-0.13230029,0.12632252,1.4745865,-1080.4162,-211.33313)"
           id="g4241"
           style="fill:#333333;fill-opacity:1;stroke-width:26.90865135;stroke-miterlimit:4;stroke-dasharray:none">
          <ellipse
             style="opacity:1;fill:#333333;fill-opacity:1;stroke:none;stroke-width:26.90865135;stroke-linecap:round;stroke-miterlimit:4;stroke-dasharray:none;stroke-dashoffset:0;stroke-opacity:1"
             id="path4237"
             cx="1523.3746"
             cy="1238.3483"
             transform="matrix(0.98424076,-0.17683359,0.17683359,0.98424076,0,0)"
             rx="27.075418"
             ry="28.503992" />
        </g>
        <path
           sodipodi:nodetypes="cccc"
           inkscape:connector-curvature="0"
           id="path4452"
           d="m 1727.056,970.21651 c 0,2e-5 23.1631,59.13609 -21.1216,90.43979 4.6948,-32.1837 -26.5957,-86.16306 -31.5285,-85.2768 17.9891,-0.0842 35.7948,-0.8519 52.6501,-5.16299 z"
           style="fill:#333333;fill-opacity:1;fill-rule:evenodd;stroke:none;stroke-width:1px;stroke-linecap:butt;stroke-linejoin:miter;stroke-opacity:1" />
        <g
           style="fill:#333333;fill-opacity:1;stroke-width:26.90865135;stroke-miterlimit:4;stroke-dasharray:none"
           id="g4454"
           transform="matrix(1.4871977,-0.13230029,0.12632252,1.4745865,-996.52456,-245.27429)">
          <ellipse
             ry="28.503992"
             rx="27.075418"
             transform="matrix(0.98424076,-0.17683359,0.17683359,0.98424076,0,0)"
             cy="1238.3483"
             cx="1523.3746"
             id="ellipse4456"
             style="opacity:1;fill:#333333;fill-opacity:1;stroke:none;stroke-width:26.90865135;stroke-linecap:round;stroke-miterlimit:4;stroke-dasharray:none;stroke-dashoffset:0;stroke-opacity:1" />
        </g>
        <path
           sodipodi:nodetypes="cccc"
           inkscape:connector-curvature="0"
           id="path4385"
           d="m 1487.6109,1056.0845 c 0,0 50.6516,13.7824 47.55,73.1633 -21.5871,-22.1272 -85.941,-36.7652 -85.941,-36.7652 14.1484,-11.1102 27.7325,-22.6474 38.391,-36.3981 z"
           style="fill:#333333;fill-opacity:1;fill-rule:evenodd;stroke:none;stroke-width:1px;stroke-linecap:butt;stroke-linejoin:miter;stroke-opacity:1" />
        <g
           style="fill:#333333;fill-opacity:1;stroke-width:26.90865135;stroke-miterlimit:4;stroke-dasharray:none"
           id="g4387"
           transform="matrix(1.4871977,-0.13230029,0.12632252,1.4745865,-1237.4959,-131.50987)">
          <ellipse
             ry="28.503992"
             rx="27.075418"
             transform="matrix(0.98424076,-0.17683359,0.17683359,0.98424076,0,0)"
             cy="1238.3483"
             cx="1523.3746"
             id="ellipse4389"
             style="opacity:1;fill:#333333;fill-opacity:1;stroke:none;stroke-width:26.90865135;stroke-linecap:round;stroke-miterlimit:4;stroke-dasharray:none;stroke-dashoffset:0;stroke-opacity:1" />
        </g>
        <path
           style="fill:#333333;fill-opacity:1;fill-rule:evenodd;stroke:none;stroke-width:1px;stroke-linecap:butt;stroke-linejoin:miter;stroke-opacity:1"
           d="m 1569.9763,1050.0398 c 0,0 23.1631,59.1361 -21.1216,90.4398 4.6948,-32.1837 -26.5957,-86.1631 -31.5285,-85.2768 17.9891,-0.084 35.7948,-0.8519 52.6501,-5.163 z"
           id="path4391"
           inkscape:connector-curvature="0"
           sodipodi:nodetypes="cccc" />
        <g
           transform="matrix(1.4871977,-0.13230029,0.12632252,1.4745865,-1153.6043,-165.45103)"
           id="g4393"
           style="fill:#333333;fill-opacity:1;stroke-width:26.90865135;stroke-miterlimit:4;stroke-dasharray:none">
          <ellipse
             style="opacity:1;fill:#333333;fill-opacity:1;stroke:none;stroke-width:26.90865135;stroke-linecap:round;stroke-miterlimit:4;stroke-dasharray:none;stroke-dashoffset:0;stroke-opacity:1"
             id="ellipse4395"
             cx="1523.3746"
             cy="1238.3483"
             transform="matrix(0.98424076,-0.17683359,0.17683359,0.98424076,0,0)"
             rx="27.075418"
             ry="28.503992" />
        </g>
      </g>
    </g>
  </g>
</svg>
