<?xml version="1.0" encoding="UTF-8" standalone="no"?>
<!-- Created with Inkscape (http://www.inkscape.org/) -->

<svg
   xmlns:dc="http://purl.org/dc/elements/1.1/"
   xmlns:cc="http://creativecommons.org/ns#"
   xmlns:rdf="http://www.w3.org/1999/02/22-rdf-syntax-ns#"
   xmlns:svg="http://www.w3.org/2000/svg"
   xmlns="http://www.w3.org/2000/svg"
   xmlns:sodipodi="http://sodipodi.sourceforge.net/DTD/sodipodi-0.dtd"
   xmlns:inkscape="http://www.inkscape.org/namespaces/inkscape"
   width="848"
   height="745"
   viewBox="0 0 848.00001 745.00001"
   id="svg2"
   version="1.1"
   inkscape:version="0.91 r13725"
   sodipodi:docname="stylized_small_keelboat_with_2_sailors_in_brisk_conditions--rectangle.svg">
  <defs
     id="defs4" />
  <sodipodi:namedview
     id="base"
     pagecolor="#ffffff"
     bordercolor="#666666"
     borderopacity="1.0"
     inkscape:pageopacity="0.0"
     inkscape:pageshadow="2"
     inkscape:zoom="0.7"
     inkscape:cx="345.59482"
     inkscape:cy="334.54077"
     inkscape:document-units="px"
     inkscape:current-layer="g4318"
     showgrid="false"
     units="px"
     inkscape:window-width="1119"
     inkscape:window-height="1155"
     inkscape:window-x="2"
     inkscape:window-y="0"
     inkscape:window-maximized="0" />
  <metadata
     id="metadata7">
    <rdf:RDF>
      <cc:Work
         rdf:about="">
        <dc:format>image/svg+xml</dc:format>
        <dc:type
           rdf:resource="http://purl.org/dc/dcmitype/StillImage" />
        <dc:title></dc:title>
      </cc:Work>
    </rdf:RDF>
  </metadata>
  <g
     inkscape:label="Layer 1"
     inkscape:groupmode="layer"
     id="layer1"
     transform="translate(0,-307.36216)">
    <g
       id="g4318">
      <path
         style="opacity:1;fill:#333333;fill-opacity:1;stroke:none;stroke-width:6;stroke-linecap:round;stroke-miterlimit:4;stroke-dasharray:none;stroke-dashoffset:0;stroke-opacity:1"
         d="M 77.889833,307.36216 C 95.910384,408.02445 116.86373,508.5999 146.2241,608.62778 l -1.55045,-2.07812 -96.240287,54.10938 C 29.179826,596.56296 0,273.35815 0,452.33091 l 0,398.37695 c 19.807732,-33.57863 116.35303,-155.33057 534.40023,-310.2207 21.5747,102.17696 23.62318,286.41948 4.51714,375.23047 3.87465,-0.55755 7.65581,-1.17736 11.33423,-1.87109 5.22076,-20.0342 9.96706,-48.18858 12.3813,-87.6504 7.7872,-127.28764 -14.51122,-287.38867 -14.51122,-287.38867 0.01,-0.0488 272.22519,74.13005 299.87832,203.56641 l 0,-435.01172 -369.84135,0 44.69034,213.88086 -0.96877,3.54883 C 400.32502,565.01171 223.75859,635.79174 193.37325,671.72739 L 181.48416,655.81528 C 144.01527,540.62331 119.0318,424.25406 98.030129,307.36216 Z M 538.91737,915.71763 c -9.91733,1.427 -20.50562,2.37864 -31.78552,2.79492 -7.22844,-2.40809 -13.95734,-5.79046 -19.51384,-9.87305 -31.27241,-16.00544 -34.48388,-48.77 -45.06844,-74.68945 -29.97263,-33.61618 -80.93203,-0.28086 -124.90474,7.3457 34.70543,13.07337 90.01391,-5.60385 75.93665,25.65235 -71.56422,95.30627 -192.0775,-29.67904 -261.99388,-44.84766 -15.20206,3.64279 -74.507412,10.35907 -47.352746,13.42578 23.829046,2.42069 61.487786,7.38079 68.323086,28.59571 -6.81929,15.94847 -109.52874,-18.58969 -134.684042,-12.63868 98.538682,35.98294 224.393882,76.2722 358.162572,98.59961 -52.87409,6.93743 -107.4988,13.36373 -128.82675,4.94922 C 136.21727,913.37417 118.02322,900.19439 16.495713,874.18833 13.049394,869.98896 11.264184,866.34516 10.783851,863.19614 7.1892351,862.21574 3.5949139,861.23467 0,860.25474 l 0,60.58454 c 7.9481063,-4.77882 2.0604369,-2.48418 78.721512,23.98285 21.227968,7.32889 58.018778,5.959 91.994268,19.59584 C 119.49298,964.16119 120.57749,976.96512 0,955.18446 l 0,97.17774 430.5598,0 c -106.08946,-14.5921 -254.96472,-62.55002 -296.05922,-56.80082 10.27935,-2.71173 26.41557,-3.93432 46.49808,-4.05274 2.86894,-0.0169 5.81742,-0.0118 8.84186,0.0156 104.8476,0.93942 299.80184,27.67136 352.88699,33.91996 -0.79151,13.8958 -9.95702,22.4003 -25.06909,26.918 l 330.34158,0 0,-114.28132 c -59.32194,27.94379 -34.31088,55.25008 -42.70809,73.08012 l -24.52095,15.0156 c -21.37168,-1.4389 -43.73197,-10.1238 -66.17078,-19.3398 34.33779,-1.5542 81.90069,-21.0831 94.35422,-47.51178 -32.84455,-1.77612 -104.88401,-33.20459 -122.81508,-58.23828 -18.30578,-24.4454 91.19514,-25.56055 91.19512,-25.56055 0,0 -65.30777,-42.20908 -73.68815,-26.92773 -38.44974,38.69403 -96.98468,15.5361 -134.41556,55.51562 -7.03048,11.27431 -18.82425,16.77729 -31.79893,18.08985 0.50645,-2.10738 1.00577,-4.25612 1.48557,-6.48633 z M 787.17416,427.61997 c 29.46674,0.45017 53.9381,21.51781 56.61074,48.74024 2.8741,29.2719 -20.3788,54.98853 -51.93476,57.43945 -31.55631,2.45122 -59.46714,-19.29214 -62.34051,-48.56445 -2.87409,-29.27191 20.37657,-54.98854 51.93252,-57.43946 1.90545,-0.14771 3.8188,-0.2053 5.73201,-0.17578 z M 661.549,451.04966 c 29.4678,0.44887 53.93799,21.51685 56.61074,48.74023 2.8725,29.2719 -20.37881,54.98789 -51.93476,57.4375 -31.55434,2.44977 -59.4635,-19.29225 -62.33826,-48.5625 -2.87411,-29.27189 20.37656,-54.98853 51.93251,-57.43945 1.90453,-0.14762 3.81748,-0.20522 5.72977,-0.17578 z m 65.04318,82.73828 c 0,0 67.25389,28.41254 48.03065,101.45117 -24.58579,-32.29002 -110.75374,-64.82226 -110.75374,-64.82226 22.53771,-10.63875 44.39499,-21.93299 62.72309,-36.62891 z m 42.05478,5.58789 c 25.01568,3.88189 49.94809,6.86659 74.44437,5.28125 0,3e-5 17.50301,78.59269 -52.16968,107.58203 14.39748,-38.3058 -14.58501,-110.61301 -22.27469,-112.86328 z M 848,784.27232 c -6.31361,34.52409 -24.89775,91.47893 -42.09954,138.83593 4.67862,-1.68732 24.95446,-4.74572 42.09954,-4.58203 l 0,-29.85742 c -7.05323,5.14089 -12.56409,9.11173 -13.58944,9.8418 -0.57076,0.85766 6.86552,8.35949 6.65122,8.01004 0,0 -22.50498,4.94638 -22.36551,4.8471 2.3428,-3.52051 23.19519,-44.96085 29.30373,-60.14175 z M 528.93224,948.50864 c 20.03065,7.31393 39.90763,14.82218 59.58413,20.9375 31.66853,5.05145 54.11522,8.82176 79.75128,19.7461 -18.98892,-5.80242 -37.57709,-8.60183 -55.19005,-4.12891 -43.04981,11.30233 -62.17916,-7.17452 -90.3472,-25.88867 2.18977,-2.80946 4.26073,-6.3663 6.20184,-10.66602 z"
         id="rect8591"
         inkscape:connector-curvature="0"
         sodipodi:nodetypes="ccccsccccsccccccccccccccccccccccccccscccccscccccccccccccccccsscccccscccccccccccccccccccccccccc" />
    </g>
  </g>
</svg>
